<svg version="1.1" id="Layer_1" xmlns="http://www.w3.org/2000/svg" xmlns:xlink="http://www.w3.org/1999/xlink" x="0px" y="0px"
	 width="100%" viewBox="0 0 3312 2110" enable-background="new 0 0 3312 2110" xml:space="preserve">
<path fill="#FFCE04" opacity="1.000000" stroke="none" 
	d="
M2.000000,1818.000000 
	C2.000000,1387.941284 2.000000,957.882507 2.625803,526.526428 
	C3.905509,520.710876 4.559413,516.192688 5.395156,510.800293 
	C6.961339,497.730255 7.946068,485.473480 9.796526,473.348816 
	C19.888048,407.226746 41.652626,345.091858 74.597847,286.928436 
	C106.194939,231.145050 146.106262,182.101288 194.501617,139.945847 
	C237.217972,102.737144 284.331818,72.563820 336.086517,49.506908 
	C393.421509,23.963970 453.504517,9.435847 516.722900,3.842009 
	C522.387939,3.295552 527.193970,2.647778 532.000000,2.000002 
	C1459.146118,2.000000 2386.292236,2.000000 3314.000000,2.000000 
	C3314.000000,434.058594 3314.000000,866.117432 3313.412598,1299.681274 
	C3311.334473,1316.716187 3310.469727,1332.336670 3308.239746,1347.759644 
	C3300.420898,1401.836548 3283.859619,1453.288452 3260.002197,1502.368164 
	C3230.015381,1564.057861 3190.052734,1618.398071 3140.087646,1665.527100 
	C3095.613525,1707.476685 3045.853760,1741.350952 2990.426270,1767.070068 
	C2915.931396,1801.636719 2837.520752,1818.283203 2755.562012,1818.288086 
	C1842.034546,1818.342529 928.506958,1818.322754 14.979434,1818.309082 
	C10.652955,1818.308960 6.326478,1818.107422 2.000000,1818.000000 
M82.321198,908.999939 
	C82.321182,1169.327026 82.321159,1429.654053 82.321487,1689.981079 
	C82.321487,1692.980957 82.219009,1695.985474 82.346321,1698.980103 
	C83.389694,1723.520508 96.643036,1738.645508 120.643211,1742.413696 
	C125.860741,1743.232910 131.199997,1743.627563 136.483215,1743.627808 
	C940.125061,1743.679810 1743.766846,1743.707397 2547.408691,1743.619629 
	C2610.025635,1743.612671 2672.643799,1742.923462 2735.258057,1742.221558 
	C2748.523926,1742.072876 2761.861084,1741.151733 2775.014648,1739.432495 
	C2824.729004,1732.934937 2872.739990,1720.161377 2918.795654,1700.026367 
	C2991.043213,1668.440674 3053.173340,1623.037476 3105.135498,1563.889404 
	C3155.943848,1506.054565 3192.513916,1440.181152 3214.356201,1366.253784 
	C3227.902100,1320.406006 3235.553955,1273.567749 3235.578125,1225.778442 
	C3235.761963,861.789734 3235.678711,497.800903 3235.678711,133.812149 
	C3235.678711,131.145554 3235.779297,128.474503 3235.661377,125.813118 
	C3234.965332,110.091263 3228.341064,97.898338 3214.709717,89.490974 
	C3206.325928,84.320206 3197.295898,83.621796 3187.846680,83.622314 
	C2329.206543,83.669388 1470.566284,83.650505 611.926147,83.767021 
	C592.997925,83.769592 574.003418,84.537712 555.154541,86.227425 
	C503.109009,90.893074 453.079041,103.940598 404.964355,124.298866 
	C346.102081,149.204651 293.365112,183.590973 247.048935,227.589691 
	C195.999680,276.084686 155.971237,332.476440 127.318100,396.900116 
	C97.988297,462.845215 83.015633,532.023621 82.502853,604.010498 
	C81.783470,705.002258 82.321236,806.002991 82.321198,908.999939 
z"/>
<path fill="#FEFEFD" opacity="1.000000" stroke="none" 
	d="
M2.000000,1818.937256 
	C6.326478,1818.107422 10.652955,1818.308960 14.979434,1818.309082 
	C928.506958,1818.322754 1842.034546,1818.342529 2755.562012,1818.288086 
	C2837.520752,1818.283203 2915.931396,1801.636719 2990.426270,1767.070068 
	C3045.853760,1741.350952 3095.613525,1707.476685 3140.087646,1665.527100 
	C3190.052734,1618.398071 3230.015381,1564.057861 3260.002197,1502.368164 
	C3283.859619,1453.288452 3300.420898,1401.836548 3308.239746,1347.759644 
	C3310.469727,1332.336670 3311.334473,1316.716187 3313.412598,1300.593140 
	C3314.000000,1570.483032 3314.000000,1840.966187 3314.000000,2112.000000 
	C3155.291992,2112.000000 2996.583252,2112.000000 2837.350342,2111.322266 
	C2864.143066,2107.291748 2887.900635,2096.214844 2907.482910,2076.923584 
	C2925.616455,2059.059814 2936.152344,2037.040771 2939.134766,2011.847168 
	C2943.423828,1975.617188 2934.430420,1943.144897 2908.819580,1916.419922 
	C2888.994873,1895.732910 2864.231201,1884.052124 2835.916504,1880.905884 
	C2792.313965,1876.060547 2753.694580,1886.334351 2722.771973,1919.606079 
	C2691.867188,1952.858643 2685.843994,2007.029297 2705.416260,2046.237671 
	C2722.052979,2079.565430 2748.846436,2100.029785 2785.042969,2108.410156 
	C2789.405029,2109.419922 2793.683105,2110.794678 2798.000000,2112.000000 
	C2431.291504,2112.000000 2064.583008,2112.000000 1697.345703,2111.324463 
	C1724.385864,2107.394531 1746.941650,2095.263428 1762.353760,2071.875732 
	C1773.598511,2054.811523 1778.152100,2035.372192 1778.267456,2015.082886 
	C1778.502441,1973.768433 1778.338257,1932.451782 1778.338623,1891.135986 
	C1778.338623,1888.911499 1778.338745,1886.686890 1778.338745,1884.320557 
	C1760.553589,1884.320557 1743.791870,1884.320557 1726.326538,1884.320557 
	C1726.326538,1888.247070 1726.326660,1891.520508 1726.326660,1894.793945 
	C1726.326782,1931.445068 1726.642334,1968.100464 1726.132446,2004.744507 
	C1725.981689,2015.579346 1724.694214,2026.709717 1721.826660,2037.126343 
	C1716.804077,2055.371094 1703.206421,2065.277100 1684.562134,2066.277344 
	C1679.347534,2066.557129 1674.075806,2066.674316 1668.880615,2066.250488 
	C1651.862427,2064.862305 1639.499878,2056.789551 1632.992798,2040.553711 
	C1628.838257,2030.187378 1627.721558,2019.331299 1627.700684,2008.331299 
	C1627.628418,1970.347534 1627.672974,1932.363647 1627.672974,1894.379761 
	C1627.672974,1891.136719 1627.672974,1887.893677 1627.672974,1884.158203 
	C1609.565063,1884.158203 1592.432617,1884.158203 1574.326416,1884.158203 
	C1574.326416,1887.894165 1574.326294,1891.137207 1574.326416,1894.380249 
	C1574.326538,1926.366577 1574.203247,1958.353760 1574.390015,1990.338989 
	C1574.461670,2002.614014 1574.539917,2014.958740 1575.822510,2027.144653 
	C1580.575073,2072.296875 1607.606567,2102.485352 1651.613281,2110.053711 
	C1653.789429,2110.428223 1655.873169,2111.338867 1658.000000,2112.000000 
	C1371.958252,2112.000000 1085.916382,2112.000000 799.452393,2111.402100 
	C806.488770,2109.295410 814.128357,2108.382568 821.377441,2106.183105 
	C876.233704,2089.538574 910.714294,2038.104248 902.402954,1979.415283 
	C897.640747,1945.787720 881.230652,1919.545776 853.271851,1900.816284 
	C822.700500,1880.336792 788.627991,1875.051758 753.118652,1882.424438 
	C705.489746,1892.313354 672.715088,1920.054688 660.970154,1968.199951 
	C646.398193,2027.933960 677.955383,2086.189941 737.505676,2105.398193 
	C745.544006,2107.990967 753.829163,2109.818115 762.000000,2112.000000 
	C682.624878,2112.000000 603.249756,2112.000000 523.350769,2111.322266 
	C524.814575,2110.476807 526.839417,2110.497559 528.784485,2110.114014 
	C580.500366,2099.915039 618.662476,2064.583252 625.363953,2011.039429 
	C630.392761,1970.860107 618.154602,1935.959229 587.202393,1909.060669 
	C537.332458,1865.721802 453.220520,1871.946899 411.034515,1917.043945 
	C377.368195,1953.033569 370.216553,2011.857544 396.039673,2054.724121 
	C414.457092,2085.297119 442.059540,2102.744873 476.645630,2109.836182 
	C479.779877,2110.478760 482.882660,2111.274902 486.000000,2112.000000 
	C413.958221,2112.000000 341.916412,2112.000000 269.450928,2111.400391 
	C292.181274,2108.171387 313.538361,2100.529785 333.429779,2088.382080 
	C338.599213,2085.225342 340.542328,2081.619385 340.467133,2075.566162 
	C340.152405,2050.237793 340.353516,2024.903198 340.304535,1999.570801 
	C340.299652,1997.047485 339.880035,1994.524902 339.672607,1992.220825 
	C323.391479,1992.220825 307.876678,1992.220825 291.738403,1992.220825 
	C291.738403,2014.335083 291.738403,2035.897705 291.738403,2057.719238 
	C270.434937,2068.352051 248.831024,2069.582275 226.743744,2063.051514 
	C209.297195,2057.892334 196.321198,2046.874146 188.118515,2030.632568 
	C177.819580,2010.240112 177.543625,1989.149658 184.960281,1967.845337 
	C189.118362,1955.901245 196.486038,1946.115967 206.751694,1938.722046 
	C233.980545,1919.110352 276.357819,1919.743164 301.404144,1941.729736 
	C304.377289,1944.339600 307.517456,1946.759399 310.974792,1949.590332 
	C322.091675,1939.348999 333.031372,1929.270874 344.099884,1919.073975 
	C333.926422,1907.284546 322.432648,1897.950439 308.497437,1891.698120 
	C280.233093,1879.017334 250.804703,1876.770630 220.730240,1882.502563 
	C197.692749,1886.893433 176.789322,1896.749390 160.346375,1913.492065 
	C130.393082,1943.991577 120.607262,1980.897217 129.424194,2022.646729 
	C138.998260,2067.981445 176.916565,2102.357178 224.785797,2110.245117 
	C226.571808,2110.539307 228.264069,2111.402100 230.000000,2112.000000 
	C154.127579,2112.000000 78.255173,2112.000000 2.000000,2112.000000 
	C2.000000,2014.625244 2.000000,1917.249878 2.000000,1818.937256 
M1310.327515,1994.999878 
	C1310.327515,2032.540405 1310.327515,2070.080811 1310.327515,2107.702393 
	C1328.659668,2107.702393 1345.794678,2107.702393 1362.461914,2107.702393 
	C1363.105713,2106.791016 1363.460815,2106.523193 1363.461548,2106.254395 
	C1363.586060,2063.606689 1363.684692,2020.958862 1363.792114,1978.311157 
	C1363.792969,1977.982544 1363.822998,1977.612915 1363.975342,1977.337891 
	C1364.108887,1977.097046 1364.414673,1976.923340 1364.680054,1976.792114 
	C1364.957153,1976.655029 1365.276855,1976.603760 1365.735229,1976.468384 
	C1382.800537,1997.193848 1399.931274,2017.948853 1417.005981,2038.750000 
	C1434.713379,2060.321777 1452.316895,2081.979248 1470.122314,2103.469727 
	C1471.850586,2105.555908 1474.636108,2108.030518 1477.006104,2108.111084 
	C1490.231079,2108.559814 1503.479248,2108.326660 1516.957520,2108.326660 
	C1516.957520,2032.945068 1516.957520,1958.552612 1516.957520,1884.105835 
	C1499.690186,1884.105835 1483.141479,1884.105835 1465.459229,1884.105835 
	C1465.459229,1928.538330 1465.459229,1972.535400 1465.459229,2018.460449 
	C1462.682007,2015.404053 1461.324219,2014.036621 1460.108398,2012.552979 
	C1429.363037,1975.034058 1398.095703,1937.923096 1368.211304,1899.729980 
	C1358.645630,1887.505127 1348.937256,1881.051270 1333.321533,1883.464355 
	C1325.986206,1884.597900 1318.337280,1883.701660 1310.327515,1883.726807 
	C1310.327515,1921.114136 1310.327515,1957.057007 1310.327515,1994.999878 
M3056.765625,1996.264648 
	C3060.710693,2001.187988 3064.602539,2006.155273 3068.609863,2011.027222 
	C3093.717041,2041.551758 3118.826416,2072.074219 3144.021240,2102.525879 
	C3145.838135,2104.721924 3148.276611,2107.908447 3150.526855,2107.994385 
	C3164.017578,2108.508545 3177.537598,2108.249268 3191.144287,2108.249268 
	C3191.144287,2032.816650 3191.144287,1958.694214 3191.144287,1884.256836 
	C3173.844482,1884.256836 3157.073486,1884.256836 3140.634277,1884.256836 
	C3140.158691,1885.131226 3139.877686,1885.407104 3139.877197,1885.683716 
	C3139.772705,1928.316284 3139.688965,1970.948853 3139.599609,2013.581421 
	C3139.598877,2013.912842 3139.620850,2014.286621 3139.480469,2014.563721 
	C3139.352539,2014.816528 3139.035645,2014.995605 3138.769043,2015.150269 
	C3138.498535,2015.307007 3138.187500,2015.393921 3136.796875,2015.951416 
	C3136.572998,2015.477295 3136.307373,2014.430054 3135.687500,2013.672485 
	C3103.925537,1974.857910 3072.120605,1936.078735 3040.352539,1897.268921 
	C3029.238281,1883.690552 3029.277100,1883.658569 3011.587891,1883.658569 
	C3003.081787,1883.658569 2994.575439,1883.658691 2986.160156,1883.658691 
	C2986.160156,1959.207397 2986.160156,2033.349854 2986.160156,2107.693115 
	C3003.417480,2107.693115 3020.175293,2107.693115 3037.927979,2107.693115 
	C3037.927979,2063.363281 3037.927979,2019.669800 3037.927979,1973.793579 
	C3044.866943,1982.138062 3050.317627,1988.693115 3056.765625,1996.264648 
M1131.738770,1907.164062 
	C1109.288330,1891.334351 1084.095703,1883.973877 1056.858276,1883.725220 
	C1024.206543,1883.427124 991.549988,1883.642944 958.895569,1883.673584 
	C955.661560,1883.676636 952.427795,1883.939331 949.324036,1884.075806 
	C947.380676,1898.171509 947.952454,2101.026855 949.994812,2108.344727 
	C953.171692,2108.344727 956.488342,2108.344482 959.804932,2108.344482 
	C990.460144,2108.344482 1021.122437,2108.726807 1051.766968,2108.156494 
	C1063.962280,2107.929443 1076.322388,2106.553467 1088.249512,2104.017334 
	C1112.626221,2098.834229 1133.668579,2087.125732 1149.923096,2067.882568 
	C1169.320801,2044.918579 1176.129639,2018.136963 1174.499146,1988.375610 
	C1172.676025,1955.098022 1159.365479,1928.289062 1131.738770,1907.164062 
M2036.328735,1932.999878 
	C2036.328735,1991.205200 2036.328735,2049.410645 2036.328735,2107.698730 
	C2054.661865,2107.698730 2071.797852,2107.698730 2089.455322,2107.698730 
	C2090.147949,2087.001709 2089.045166,2066.859131 2090.112305,2046.639160 
	C2106.533203,2046.639160 2121.789551,2046.639160 2137.123779,2046.639160 
	C2149.927490,2065.121338 2162.778564,2083.334961 2175.198242,2101.837891 
	C2178.282959,2106.433350 2181.345947,2108.695557 2187.156494,2108.495117 
	C2200.803955,2108.024170 2214.479004,2108.375488 2228.142090,2108.310791 
	C2230.261719,2108.300781 2232.379150,2107.853027 2235.872314,2107.448486 
	C2219.017334,2083.193604 2202.958984,2060.084961 2186.589111,2036.527954 
	C2189.086670,2035.053711 2191.513428,2033.956177 2193.548096,2032.359253 
	C2200.559326,2026.855957 2208.145020,2021.849976 2214.212158,2015.427002 
	C2226.898193,2001.996704 2231.822754,1985.147461 2232.059570,1967.003906 
	C2232.416260,1939.673828 2222.788574,1916.961060 2199.752197,1901.046875 
	C2181.912842,1888.723267 2161.665527,1883.957642 2140.360107,1883.740601 
	C2108.370850,1883.414673 2076.375488,1883.638794 2044.382690,1883.689209 
	C2041.864868,1883.693237 2039.347900,1884.166382 2036.328735,1884.472290 
	C2036.328735,1900.430908 2036.328735,1915.715454 2036.328735,1932.999878 
M1931.671509,1941.157715 
	C1931.766357,1936.340698 1931.861206,1931.523560 1931.971436,1925.925781 
	C1956.164917,1925.925781 1978.984863,1925.925781 2001.864136,1925.925781 
	C2001.864136,1911.553101 2001.864136,1898.044556 2001.864136,1884.241943 
	C1936.649902,1884.241943 1871.909790,1884.241943 1806.801514,1884.241943 
	C1806.801514,1898.320923 1806.801514,1911.811157 1806.801514,1926.408691 
	C1830.699097,1926.408691 1854.153931,1926.408691 1878.629639,1926.408691 
	C1878.629639,1987.617310 1878.629639,2047.725586 1878.629639,2107.601562 
	C1896.829834,2107.601562 1913.965088,2107.601562 1931.671387,2107.601562 
	C1931.671387,2052.279297 1931.671387,1997.697510 1931.671509,1941.157715 
M2562.320801,1904.997437 
	C2562.320801,1898.114990 2562.320801,1891.232544 2562.320801,1884.368774 
	C2496.178711,1884.368774 2431.145020,1884.368774 2366.216309,1884.368774 
	C2366.216309,1898.576050 2366.216309,1912.078857 2366.216309,1926.657715 
	C2390.168213,1926.657715 2413.606201,1926.657715 2438.047852,1926.657715 
	C2438.047852,1987.801025 2438.047852,2047.864990 2438.047852,2107.778320 
	C2455.935059,2107.778320 2472.769531,2107.778320 2490.637207,2107.778320 
	C2490.637207,2047.171875 2490.637207,1987.107788 2490.637207,1925.972534 
	C2515.100342,1925.972534 2538.537598,1925.972534 2562.320801,1925.972534 
	C2562.320801,1918.918335 2562.320801,1912.948853 2562.320801,1904.997437 
M2332.320557,2011.000122 
	C2332.320557,1968.811523 2332.320557,1926.622925 2332.320557,1884.402588 
	C2314.177490,1884.402588 2297.103027,1884.402588 2280.208740,1884.402588 
	C2280.208740,1959.277222 2280.208740,2033.418701 2280.208740,2107.597656 
	C2297.821289,2107.597656 2314.895752,2107.597656 2332.320557,2107.597656 
	C2332.320557,2075.578613 2332.320557,2044.289429 2332.320557,2011.000122 
M2613.106201,1883.657593 
	C2607.631104,1883.794312 2602.156006,1883.931152 2596.901855,1884.062378 
	C2596.901855,1959.419922 2596.901855,2033.485840 2596.901855,2107.708008 
	C2614.245850,2107.708008 2631.010742,2107.708008 2647.634766,2107.708008 
	C2647.634766,2032.744629 2647.634766,1958.417725 2647.634766,1883.657593 
	C2636.320312,1883.657593 2625.701416,1883.657593 2613.106201,1883.657593 
z"/>
<path fill="#FFFFFE" opacity="1.000000" stroke="none" 
	d="
M515.863892,3.740692 
	C453.504517,9.435847 393.421509,23.963970 336.086517,49.506908 
	C284.331818,72.563820 237.217972,102.737144 194.501617,139.945847 
	C146.106262,182.101288 106.194939,231.145050 74.597847,286.928436 
	C41.652626,345.091858 19.888048,407.226746 9.796526,473.348816 
	C7.946068,485.473480 6.961339,497.730255 4.855612,510.819000 
	C3.422819,511.807953 2.711410,511.903992 2.000000,512.000000 
	C2.000000,342.145355 2.000000,172.290710 2.000000,2.000000 
	C172.708206,2.000000 343.416779,2.000000 515.018616,2.434387 
	C515.911865,2.868774 515.863892,3.740692 515.863892,3.740692 
z"/>
<path fill="#532B21" opacity="1.000000" stroke="none" 
	d="
M762.935913,2112.000000 
	C753.829163,2109.818115 745.544006,2107.990967 737.505676,2105.398193 
	C677.955383,2086.189941 646.398193,2027.933960 660.970154,1968.199951 
	C672.715088,1920.054688 705.489746,1892.313354 753.118652,1882.424438 
	C788.627991,1875.051758 822.700500,1880.336792 853.271851,1900.816284 
	C881.230652,1919.545776 897.640747,1945.787720 902.402954,1979.415283 
	C910.714294,2038.104248 876.233704,2089.538574 821.377441,2106.183105 
	C814.128357,2108.382568 806.488770,2109.295410 798.515015,2111.402100 
	C786.623901,2112.000000 775.247864,2112.000000 762.935913,2112.000000 
M713.699219,2016.689697 
	C719.971558,2039.458252 733.971680,2055.274414 756.296021,2063.228027 
	C767.018555,2067.048340 778.259399,2067.491699 789.519897,2066.299072 
	C814.787231,2063.624268 832.956970,2050.671631 843.577637,2027.697754 
	C849.691528,2014.472534 851.598694,2000.264893 849.587097,1985.823242 
	C846.212219,1961.593262 834.830627,1942.700439 812.068909,1931.820923 
	C796.185730,1924.229126 779.702026,1922.615479 762.660950,1926.926636 
	C751.548218,1929.738159 741.374268,1934.400024 732.998657,1942.481201 
	C711.980713,1962.760620 708.176880,1987.642822 713.699219,2016.689697 
z"/>
<path fill="#532B21" opacity="1.000000" stroke="none" 
	d="
M486.935913,2112.000000 
	C482.882660,2111.274902 479.779877,2110.478760 476.645630,2109.836182 
	C442.059540,2102.744873 414.457092,2085.297119 396.039673,2054.724121 
	C370.216553,2011.857544 377.368195,1953.033569 411.034515,1917.043945 
	C453.220520,1871.946899 537.332458,1865.721802 587.202393,1909.060669 
	C618.154602,1935.959229 630.392761,1970.860107 625.363953,2011.039429 
	C618.662476,2064.583252 580.500366,2099.915039 528.784485,2110.114014 
	C526.839417,2110.497559 524.814575,2110.476807 522.413452,2111.322266 
	C510.623932,2112.000000 499.247833,2112.000000 486.935913,2112.000000 
M530.750610,1929.812500 
	C527.581360,1928.836182 524.458679,1927.657227 521.235352,1926.915894 
	C497.433838,1921.440918 475.790192,1925.728271 456.909058,1941.640381 
	C430.806610,1963.638428 427.376556,2005.675415 443.490784,2034.013672 
	C465.686981,2073.048096 520.962280,2076.259521 550.065735,2050.261719 
	C566.109741,2035.929932 572.634155,2017.390625 572.485535,1995.810425 
	C572.277222,1965.546997 559.757263,1943.476318 530.750610,1929.812500 
z"/>
<path fill="#532B21" opacity="1.000000" stroke="none" 
	d="
M2798.936523,2112.000000 
	C2793.683105,2110.794678 2789.405029,2109.419922 2785.042969,2108.410156 
	C2748.846436,2100.029785 2722.052979,2079.565430 2705.416260,2046.237671 
	C2685.843994,2007.029297 2691.867188,1952.858643 2722.771973,1919.606079 
	C2753.694580,1886.334351 2792.313965,1876.060547 2835.916504,1880.905884 
	C2864.231201,1884.052124 2888.994873,1895.732910 2908.819580,1916.419922 
	C2934.430420,1943.144897 2943.423828,1975.617188 2939.134766,2011.847168 
	C2936.152344,2037.040771 2925.616455,2059.059814 2907.482910,2076.923584 
	C2887.900635,2096.214844 2864.143066,2107.291748 2836.413086,2111.322266 
	C2823.957764,2112.000000 2811.915283,2112.000000 2798.936523,2112.000000 
M2875.656250,2036.409790 
	C2884.123779,2023.017700 2886.442383,2008.274292 2886.451172,1992.641968 
	C2886.471924,1955.843628 2856.786377,1919.902222 2808.187012,1925.505737 
	C2771.223389,1929.767700 2750.459961,1957.345947 2747.860107,1988.949707 
	C2744.858398,2025.439575 2764.253906,2065.099609 2816.119141,2067.048096 
	C2839.897949,2067.941406 2860.960449,2058.810547 2875.656250,2036.409790 
z"/>
<path fill="#532B20" opacity="1.000000" stroke="none" 
	d="
M230.936539,2112.000000 
	C228.264069,2111.402100 226.571808,2110.539307 224.785797,2110.245117 
	C176.916565,2102.357178 138.998260,2067.981445 129.424194,2022.646729 
	C120.607262,1980.897217 130.393082,1943.991577 160.346375,1913.492065 
	C176.789322,1896.749390 197.692749,1886.893433 220.730240,1882.502563 
	C250.804703,1876.770630 280.233093,1879.017334 308.497437,1891.698120 
	C322.432648,1897.950439 333.926422,1907.284546 344.099884,1919.073975 
	C333.031372,1929.270874 322.091675,1939.348999 310.974792,1949.590332 
	C307.517456,1946.759399 304.377289,1944.339600 301.404144,1941.729736 
	C276.357819,1919.743164 233.980545,1919.110352 206.751694,1938.722046 
	C196.486038,1946.115967 189.118362,1955.901245 184.960281,1967.845337 
	C177.543625,1989.149658 177.819580,2010.240112 188.118515,2030.632568 
	C196.321198,2046.874146 209.297195,2057.892334 226.743744,2063.051514 
	C248.831024,2069.582275 270.434937,2068.352051 291.738403,2057.719238 
	C291.738403,2035.897705 291.738403,2014.335083 291.738403,1992.220825 
	C307.876678,1992.220825 323.391479,1992.220825 339.672607,1992.220825 
	C339.880035,1994.524902 340.299652,1997.047485 340.304535,1999.570801 
	C340.353516,2024.903198 340.152405,2050.237793 340.467133,2075.566162 
	C340.542328,2081.619385 338.599213,2085.225342 333.429779,2088.382080 
	C313.538361,2100.529785 292.181274,2108.171387 268.513611,2111.400391 
	C255.957687,2112.000000 243.915390,2112.000000 230.936539,2112.000000 
z"/>
<path fill="#532C21" opacity="1.000000" stroke="none" 
	d="
M1658.936523,2112.000000 
	C1655.873169,2111.338867 1653.789429,2110.428223 1651.613281,2110.053711 
	C1607.606567,2102.485352 1580.575073,2072.296875 1575.822510,2027.144653 
	C1574.539917,2014.958740 1574.461670,2002.614014 1574.390015,1990.338989 
	C1574.203247,1958.353760 1574.326538,1926.366577 1574.326416,1894.380249 
	C1574.326294,1891.137207 1574.326416,1887.894165 1574.326416,1884.158203 
	C1592.432617,1884.158203 1609.565063,1884.158203 1627.672974,1884.158203 
	C1627.672974,1887.893677 1627.672974,1891.136719 1627.672974,1894.379761 
	C1627.672974,1932.363647 1627.628418,1970.347534 1627.700684,2008.331299 
	C1627.721558,2019.331299 1628.838257,2030.187378 1632.992798,2040.553711 
	C1639.499878,2056.789551 1651.862427,2064.862305 1668.880615,2066.250488 
	C1674.075806,2066.674316 1679.347534,2066.557129 1684.562134,2066.277344 
	C1703.206421,2065.277100 1716.804077,2055.371094 1721.826660,2037.126343 
	C1724.694214,2026.709717 1725.981689,2015.579346 1726.132446,2004.744507 
	C1726.642334,1968.100464 1726.326782,1931.445068 1726.326660,1894.793945 
	C1726.326660,1891.520508 1726.326538,1888.247070 1726.326538,1884.320557 
	C1743.791870,1884.320557 1760.553589,1884.320557 1778.338745,1884.320557 
	C1778.338745,1886.686890 1778.338623,1888.911499 1778.338623,1891.135986 
	C1778.338257,1932.451782 1778.502441,1973.768433 1778.267456,2015.082886 
	C1778.152100,2035.372192 1773.598511,2054.811523 1762.353760,2071.875732 
	C1746.941650,2095.263428 1724.385864,2107.394531 1696.408447,2111.324463 
	C1683.957642,2112.000000 1671.915405,2112.000000 1658.936523,2112.000000 
z"/>
<path fill="#FFEFAC" opacity="1.000000" stroke="none" 
	d="
M2.000000,512.875000 
	C2.711410,511.903992 3.422819,511.807953 4.673773,511.693237 
	C4.559413,516.192688 3.905509,520.710876 2.625803,525.614502 
	C2.000000,521.916687 2.000000,517.833313 2.000000,512.875000 
z"/>
<path fill="#FFEDA6" opacity="1.000000" stroke="none" 
	d="
M516.722900,3.842009 
	C515.863892,3.740692 515.911865,2.868774 515.955933,2.434387 
	C520.741150,2.000000 525.482239,2.000000 531.111694,2.000002 
	C527.193970,2.647778 522.387939,3.295552 516.722900,3.842009 
z"/>
<path fill="#FFFFFD" opacity="1.000000" stroke="none" 
	d="
M82.321243,907.999878 
	C82.321236,806.002991 81.783470,705.002258 82.502853,604.010498 
	C83.015633,532.023621 97.988297,462.845215 127.318100,396.900116 
	C155.971237,332.476440 195.999680,276.084686 247.048935,227.589691 
	C293.365112,183.590973 346.102081,149.204651 404.964355,124.298866 
	C453.079041,103.940598 503.109009,90.893074 555.154541,86.227425 
	C574.003418,84.537712 592.997925,83.769592 611.926147,83.767021 
	C1470.566284,83.650505 2329.206543,83.669388 3187.846680,83.622314 
	C3197.295898,83.621796 3206.325928,84.320206 3214.709717,89.490974 
	C3228.341064,97.898338 3234.965332,110.091263 3235.661377,125.813118 
	C3235.779297,128.474503 3235.678711,131.145554 3235.678711,133.812149 
	C3235.678711,497.800903 3235.761963,861.789734 3235.578125,1225.778442 
	C3235.553955,1273.567749 3227.902100,1320.406006 3214.356201,1366.253784 
	C3192.513916,1440.181152 3155.943848,1506.054565 3105.135498,1563.889404 
	C3053.173340,1623.037476 2991.043213,1668.440674 2918.795654,1700.026367 
	C2872.739990,1720.161377 2824.729004,1732.934937 2775.014648,1739.432495 
	C2761.861084,1741.151733 2748.523926,1742.072876 2735.258057,1742.221558 
	C2672.643799,1742.923462 2610.025635,1743.612671 2547.408691,1743.619629 
	C1743.766846,1743.707397 940.125061,1743.679810 136.483215,1743.627808 
	C131.199997,1743.627563 125.860741,1743.232910 120.643211,1742.413696 
	C96.643036,1738.645508 83.389694,1723.520508 82.346321,1698.980103 
	C82.219009,1695.985474 82.321487,1692.980957 82.321487,1689.981079 
	C82.321159,1429.654053 82.321182,1169.327026 82.321243,907.999878 
M3151.664307,1189.000000 
	C3151.664307,848.810791 3151.664307,508.621613 3151.664307,167.679092 
	C3145.654297,167.679092 3141.025635,167.679092 3136.396973,167.679092 
	C2293.430176,167.679092 1450.463379,167.672729 607.496582,167.704147 
	C576.164062,167.705322 545.095703,170.715912 514.542236,177.824982 
	C378.229736,209.541641 278.074860,288.119843 213.499130,411.867950 
	C180.220505,475.640625 166.449402,544.410461 166.411728,615.941345 
	C166.238739,944.261597 166.335556,1272.582031 166.335617,1600.902466 
	C166.335632,1617.235107 166.306259,1633.567993 166.368149,1649.900391 
	C166.377853,1652.461182 166.803574,1655.020386 167.104462,1658.320923 
	C171.639740,1658.320923 175.591156,1658.320923 179.542557,1658.320923 
	C1029.175781,1658.320923 1878.808960,1658.321167 2728.442139,1658.308350 
	C2732.103516,1658.308350 2735.773193,1658.246094 2739.424805,1658.000000 
	C2777.082275,1655.463867 2813.802002,1648.271851 2849.655518,1636.375732 
	C2910.323242,1616.246704 2963.865723,1584.082764 3010.588135,1540.719849 
	C3055.325439,1499.199585 3090.023438,1450.320435 3114.535645,1394.349609 
	C3133.902832,1350.127075 3146.112305,1303.993530 3149.583496,1255.806030 
	C3151.135010,1234.265869 3151.021973,1212.605713 3151.664307,1189.000000 
z"/>
<path fill="#532C21" opacity="1.000000" stroke="none" 
	d="
M1310.327515,1993.999756 
	C1310.327515,1957.057007 1310.327515,1921.114136 1310.327515,1883.726807 
	C1318.337280,1883.701660 1325.986206,1884.597900 1333.321533,1883.464355 
	C1348.937256,1881.051270 1358.645630,1887.505127 1368.211304,1899.729980 
	C1398.095703,1937.923096 1429.363037,1975.034058 1460.108398,2012.552979 
	C1461.324219,2014.036621 1462.682007,2015.404053 1465.459229,2018.460449 
	C1465.459229,1972.535400 1465.459229,1928.538330 1465.459229,1884.105835 
	C1483.141479,1884.105835 1499.690186,1884.105835 1516.957520,1884.105835 
	C1516.957520,1958.552612 1516.957520,2032.945068 1516.957520,2108.326660 
	C1503.479248,2108.326660 1490.231079,2108.559814 1477.006104,2108.111084 
	C1474.636108,2108.030518 1471.850586,2105.555908 1470.122314,2103.469727 
	C1452.316895,2081.979248 1434.713379,2060.321777 1417.005981,2038.750000 
	C1399.931274,2017.948853 1382.800537,1997.193848 1365.735229,1976.468384 
	C1365.276855,1976.603760 1364.957153,1976.655029 1364.680054,1976.792114 
	C1364.414673,1976.923340 1364.108887,1977.097046 1363.975342,1977.337891 
	C1363.822998,1977.612915 1363.792969,1977.982544 1363.792114,1978.311157 
	C1363.684692,2020.958862 1363.586060,2063.606689 1363.461548,2106.254395 
	C1363.460815,2106.523193 1363.105713,2106.791016 1362.461914,2107.702393 
	C1345.794678,2107.702393 1328.659668,2107.702393 1310.327515,2107.702393 
	C1310.327515,2070.080811 1310.327515,2032.540405 1310.327515,1993.999756 
z"/>
<path fill="#532B20" opacity="1.000000" stroke="none" 
	d="
M3056.267090,1995.756348 
	C3050.317627,1988.693115 3044.866943,1982.138062 3037.927979,1973.793579 
	C3037.927979,2019.669800 3037.927979,2063.363281 3037.927979,2107.693115 
	C3020.175293,2107.693115 3003.417480,2107.693115 2986.160156,2107.693115 
	C2986.160156,2033.349854 2986.160156,1959.207397 2986.160156,1883.658691 
	C2994.575439,1883.658691 3003.081787,1883.658569 3011.587891,1883.658569 
	C3029.277100,1883.658569 3029.238281,1883.690552 3040.352539,1897.268921 
	C3072.120605,1936.078735 3103.925537,1974.857910 3135.687500,2013.672485 
	C3136.307373,2014.430054 3136.572998,2015.477295 3136.796875,2015.951416 
	C3138.187500,2015.393921 3138.498535,2015.307007 3138.769043,2015.150269 
	C3139.035645,2014.995605 3139.352539,2014.816528 3139.480469,2014.563721 
	C3139.620850,2014.286621 3139.598877,2013.912842 3139.599609,2013.581421 
	C3139.688965,1970.948853 3139.772705,1928.316284 3139.877197,1885.683716 
	C3139.877686,1885.407104 3140.158691,1885.131226 3140.634277,1884.256836 
	C3157.073486,1884.256836 3173.844482,1884.256836 3191.144287,1884.256836 
	C3191.144287,1958.694214 3191.144287,2032.816650 3191.144287,2108.249268 
	C3177.537598,2108.249268 3164.017578,2108.508545 3150.526855,2107.994385 
	C3148.276611,2107.908447 3145.838135,2104.721924 3144.021240,2102.525879 
	C3118.826416,2072.074219 3093.717041,2041.551758 3068.609863,2011.027222 
	C3064.602539,2006.155273 3060.710693,2001.187988 3056.267090,1995.756348 
z"/>
<path fill="#532B21" opacity="1.000000" stroke="none" 
	d="
M1132.301025,1907.612061 
	C1159.365479,1928.289062 1172.676025,1955.098022 1174.499146,1988.375610 
	C1176.129639,2018.136963 1169.320801,2044.918579 1149.923096,2067.882568 
	C1133.668579,2087.125732 1112.626221,2098.834229 1088.249512,2104.017334 
	C1076.322388,2106.553467 1063.962280,2107.929443 1051.766968,2108.156494 
	C1021.122437,2108.726807 990.460144,2108.344482 959.804932,2108.344482 
	C956.488342,2108.344482 953.171692,2108.344727 949.994812,2108.344727 
	C947.952454,2101.026855 947.380676,1898.171509 949.324036,1884.075806 
	C952.427795,1883.939331 955.661560,1883.676636 958.895569,1883.673584 
	C991.549988,1883.642944 1024.206543,1883.427124 1056.858276,1883.725220 
	C1084.095703,1883.973877 1109.288330,1891.334351 1132.301025,1907.612061 
M1050.836670,2064.321533 
	C1053.169312,2064.317627 1055.522827,2064.517578 1057.831299,2064.279053 
	C1084.411987,2061.532715 1105.784912,2050.827881 1116.291504,2024.616089 
	C1122.776611,2008.437012 1123.271973,1991.838623 1118.796143,1974.855225 
	C1113.470703,1954.648071 1101.005127,1941.293457 1082.092773,1933.114990 
	C1071.455200,1928.514648 1060.240356,1927.423950 1049.019043,1927.006226 
	C1033.506836,1926.428711 1017.957031,1926.861206 1002.342773,1926.861206 
	C1002.342773,1972.951660 1002.342773,2018.391113 1002.342773,2064.321533 
	C1018.299561,2064.321533 1033.589600,2064.321533 1050.836670,2064.321533 
z"/>
<path fill="#532B21" opacity="1.000000" stroke="none" 
	d="
M2036.328735,1931.999878 
	C2036.328735,1915.715454 2036.328735,1900.430908 2036.328735,1884.472290 
	C2039.347900,1884.166382 2041.864868,1883.693237 2044.382690,1883.689209 
	C2076.375488,1883.638794 2108.370850,1883.414673 2140.360107,1883.740601 
	C2161.665527,1883.957642 2181.912842,1888.723267 2199.752197,1901.046875 
	C2222.788574,1916.961060 2232.416260,1939.673828 2232.059570,1967.003906 
	C2231.822754,1985.147461 2226.898193,2001.996704 2214.212158,2015.427002 
	C2208.145020,2021.849976 2200.559326,2026.855957 2193.548096,2032.359253 
	C2191.513428,2033.956177 2189.086670,2035.053711 2186.589111,2036.527954 
	C2202.958984,2060.084961 2219.017334,2083.193604 2235.872314,2107.448486 
	C2232.379150,2107.853027 2230.261719,2108.300781 2228.142090,2108.310791 
	C2214.479004,2108.375488 2200.803955,2108.024170 2187.156494,2108.495117 
	C2181.345947,2108.695557 2178.282959,2106.433350 2175.198242,2101.837891 
	C2162.778564,2083.334961 2149.927490,2065.121338 2137.123779,2046.639160 
	C2121.789551,2046.639160 2106.533203,2046.639160 2090.112305,2046.639160 
	C2089.045166,2066.859131 2090.147949,2087.001709 2089.455322,2107.698730 
	C2071.797852,2107.698730 2054.661865,2107.698730 2036.328735,2107.698730 
	C2036.328735,2049.410645 2036.328735,1991.205200 2036.328735,1931.999878 
M2136.239990,2003.662842 
	C2141.140381,2002.928223 2146.189941,2002.713501 2150.913086,2001.360352 
	C2164.542480,1997.456177 2174.883545,1989.710571 2177.474609,1974.849609 
	C2180.615967,1956.834839 2177.452637,1936.688354 2151.600586,1929.094727 
	C2146.891602,1927.711426 2141.834961,1927.002319 2136.922607,1926.916016 
	C2121.429688,1926.643799 2105.928955,1926.815552 2090.211914,1926.815552 
	C2090.211914,1952.581787 2090.211914,1977.671753 2090.211914,2003.663452 
	C2105.290283,2003.663452 2119.835449,2003.663452 2136.239990,2003.662842 
z"/>
<path fill="#532B21" opacity="1.000000" stroke="none" 
	d="
M1931.671387,1942.136719 
	C1931.671387,1997.697510 1931.671387,2052.279297 1931.671387,2107.601562 
	C1913.965088,2107.601562 1896.829834,2107.601562 1878.629639,2107.601562 
	C1878.629639,2047.725586 1878.629639,1987.617310 1878.629639,1926.408691 
	C1854.153931,1926.408691 1830.699097,1926.408691 1806.801514,1926.408691 
	C1806.801514,1911.811157 1806.801514,1898.320923 1806.801514,1884.241943 
	C1871.909790,1884.241943 1936.649902,1884.241943 2001.864136,1884.241943 
	C2001.864136,1898.044556 2001.864136,1911.553101 2001.864136,1925.925781 
	C1978.984863,1925.925781 1956.164917,1925.925781 1931.971436,1925.925781 
	C1931.861206,1931.523560 1931.766357,1936.340698 1931.671387,1942.136719 
z"/>
<path fill="#51291E" opacity="1.000000" stroke="none" 
	d="
M2562.320801,1905.988403 
	C2562.320801,1912.948853 2562.320801,1918.918335 2562.320801,1925.972534 
	C2538.537598,1925.972534 2515.100342,1925.972534 2490.637207,1925.972534 
	C2490.637207,1987.107788 2490.637207,2047.171875 2490.637207,2107.778320 
	C2472.769531,2107.778320 2455.935059,2107.778320 2438.047852,2107.778320 
	C2438.047852,2047.864990 2438.047852,1987.801025 2438.047852,1926.657715 
	C2413.606201,1926.657715 2390.168213,1926.657715 2366.216309,1926.657715 
	C2366.216309,1912.078857 2366.216309,1898.576050 2366.216309,1884.368774 
	C2431.145020,1884.368774 2496.178711,1884.368774 2562.320801,1884.368774 
	C2562.320801,1891.232544 2562.320801,1898.114990 2562.320801,1905.988403 
z"/>
<path fill="#51291E" opacity="1.000000" stroke="none" 
	d="
M2332.320557,2012.000244 
	C2332.320557,2044.289429 2332.320557,2075.578613 2332.320557,2107.597656 
	C2314.895752,2107.597656 2297.821289,2107.597656 2280.208740,2107.597656 
	C2280.208740,2033.418701 2280.208740,1959.277222 2280.208740,1884.402588 
	C2297.103027,1884.402588 2314.177490,1884.402588 2332.320557,1884.402588 
	C2332.320557,1926.622925 2332.320557,1968.811523 2332.320557,2012.000244 
z"/>
<path fill="#532B20" opacity="1.000000" stroke="none" 
	d="
M2614.094238,1883.657593 
	C2625.701416,1883.657593 2636.320312,1883.657593 2647.634766,1883.657593 
	C2647.634766,1958.417725 2647.634766,2032.744629 2647.634766,2107.708008 
	C2631.010742,2107.708008 2614.245850,2107.708008 2596.901855,2107.708008 
	C2596.901855,2033.485840 2596.901855,1959.419922 2596.901855,1884.062378 
	C2602.156006,1883.931152 2607.631104,1883.794312 2614.094238,1883.657593 
z"/>
<path fill="#FEFDFD" opacity="1.000000" stroke="none" 
	d="
M713.632751,2015.841675 
	C708.176880,1987.642822 711.980713,1962.760620 732.998657,1942.481201 
	C741.374268,1934.400024 751.548218,1929.738159 762.660950,1926.926636 
	C779.702026,1922.615479 796.185730,1924.229126 812.068909,1931.820923 
	C834.830627,1942.700439 846.212219,1961.593262 849.587097,1985.823242 
	C851.598694,2000.264893 849.691528,2014.472534 843.577637,2027.697754 
	C832.956970,2050.671631 814.787231,2063.624268 789.519897,2066.299072 
	C778.259399,2067.491699 767.018555,2067.048340 756.296021,2063.228027 
	C733.971680,2055.274414 719.971558,2039.458252 713.632751,2015.841675 
z"/>
<path fill="#FEFDFD" opacity="1.000000" stroke="none" 
	d="
M531.486816,1930.066772 
	C559.757263,1943.476318 572.277222,1965.546997 572.485535,1995.810425 
	C572.634155,2017.390625 566.109741,2035.929932 550.065735,2050.261719 
	C520.962280,2076.259521 465.686981,2073.048096 443.490784,2034.013672 
	C427.376556,2005.675415 430.806610,1963.638428 456.909058,1941.640381 
	C475.790192,1925.728271 497.433838,1921.440918 521.235352,1926.915894 
	C524.458679,1927.657227 527.581360,1928.836182 531.486816,1930.066772 
z"/>
<path fill="#FEFDFD" opacity="1.000000" stroke="none" 
	d="
M2875.229492,2037.007324 
	C2860.960449,2058.810547 2839.897949,2067.941406 2816.119141,2067.048096 
	C2764.253906,2065.099609 2744.858398,2025.439575 2747.860107,1988.949707 
	C2750.459961,1957.345947 2771.223389,1929.767700 2808.187012,1925.505737 
	C2856.786377,1919.902222 2886.471924,1955.843628 2886.451172,1992.641968 
	C2886.442383,2008.274292 2884.123779,2023.017700 2875.229492,2037.007324 
z"/>
<path fill="#FFCE03" opacity="1.000000" stroke="none" 
	d="
M3151.664307,1190.000000 
	C3151.021973,1212.605713 3151.135010,1234.265869 3149.583496,1255.806030 
	C3146.112305,1303.993530 3133.902832,1350.127075 3114.535645,1394.349609 
	C3090.023438,1450.320435 3055.325439,1499.199585 3010.588135,1540.719849 
	C2963.865723,1584.082764 2910.323242,1616.246704 2849.655518,1636.375732 
	C2813.802002,1648.271851 2777.082275,1655.463867 2739.424805,1658.000000 
	C2735.773193,1658.246094 2732.103516,1658.308350 2728.442139,1658.308350 
	C1878.808960,1658.321167 1029.175781,1658.320923 179.542557,1658.320923 
	C175.591156,1658.320923 171.639740,1658.320923 167.104462,1658.320923 
	C166.803574,1655.020386 166.377853,1652.461182 166.368149,1649.900391 
	C166.306259,1633.567993 166.335632,1617.235107 166.335617,1600.902466 
	C166.335556,1272.582031 166.238739,944.261597 166.411728,615.941345 
	C166.449402,544.410461 180.220505,475.640625 213.499130,411.867950 
	C278.074860,288.119843 378.229736,209.541641 514.542236,177.824982 
	C545.095703,170.715912 576.164062,167.705322 607.496582,167.704147 
	C1450.463379,167.672729 2293.430176,167.679092 3136.396973,167.679092 
	C3141.025635,167.679092 3145.654297,167.679092 3151.664307,167.679092 
	C3151.664307,508.621613 3151.664307,848.810791 3151.664307,1190.000000 
M1513.286865,1380.317993 
	C1557.584351,1358.838867 1591.029297,1326.202637 1613.962769,1282.666382 
	C1625.999634,1259.816040 1633.103882,1235.228882 1640.001221,1210.538574 
	C1641.099243,1206.608276 1642.812988,1202.849731 1644.242065,1199.011841 
	C1646.855469,1212.574097 1647.927979,1225.700195 1649.755859,1238.720093 
	C1653.075562,1262.365112 1659.659424,1284.962769 1674.046509,1304.505981 
	C1693.049438,1330.319092 1719.062866,1346.542236 1748.555786,1357.690430 
	C1763.645630,1363.394287 1779.523560,1365.093262 1795.520264,1365.664062 
	C1816.789062,1366.423218 1838.060181,1367.374878 1859.336792,1367.587646 
	C1881.286743,1367.807129 1892.761108,1357.830200 1895.664795,1336.113647 
	C1897.202515,1324.614624 1898.277710,1312.942993 1898.194458,1301.359131 
	C1897.969849,1270.083862 1896.706665,1238.816772 1896.414795,1207.541260 
	C1895.938843,1156.557251 1895.638428,1105.568359 1895.822021,1054.583496 
	C1895.893677,1034.654419 1897.061157,1014.699707 1898.559448,994.819275 
	C1899.201782,986.296570 1901.473511,977.784180 1903.991211,969.569397 
	C1905.034912,966.163452 1908.074829,962.073608 1911.212646,960.827881 
	C1925.299194,955.235352 1940.994751,963.179199 1945.695068,977.697937 
	C1946.916748,981.471130 1947.865479,985.442627 1948.168823,989.382385 
	C1949.086426,1001.301270 1950.291626,1013.255249 1950.184326,1025.184814 
	C1949.890503,1057.793579 1948.612793,1090.394897 1948.433594,1123.003052 
	C1948.292847,1148.618530 1949.055298,1174.243408 1949.696777,1199.857178 
	C1950.358643,1226.291260 1954.574097,1252.172363 1963.928955,1276.975708 
	C1976.880005,1311.314087 1999.773071,1336.165039 2033.853149,1350.973145 
	C2067.119873,1365.427979 2102.244629,1366.590454 2137.455322,1367.086792 
	C2151.661865,1367.286987 2165.902832,1364.218506 2180.128174,1364.219482 
	C2189.349854,1364.219971 2193.372803,1359.923828 2195.941162,1352.396729 
	C2196.691895,1350.195679 2197.622803,1347.990112 2197.927002,1345.713867 
	C2199.287842,1335.532593 2201.217285,1325.345825 2201.494629,1315.121704 
	C2201.844971,1302.191162 2200.428711,1289.223267 2200.406006,1276.270386 
	C2200.280518,1203.938232 2200.378418,1131.605591 2200.312500,1059.273193 
	C2200.302002,1047.619995 2200.770996,1035.855591 2199.372803,1024.342407 
	C2197.616943,1009.883057 2199.597168,995.873413 2201.972900,981.852234 
	C2202.838867,976.741394 2205.281494,971.789001 2207.607666,967.060852 
	C2210.712402,960.750732 2216.353516,958.120972 2223.233154,958.370911 
	C2238.360352,958.920288 2246.332275,966.283203 2250.297363,977.878418 
	C2254.454834,990.036987 2255.026855,1002.711243 2255.434814,1015.238281 
	C2255.920898,1030.160034 2254.512207,1045.133667 2254.424561,1060.087646 
	C2254.368408,1069.703613 2255.645508,1079.327881 2255.575928,1088.942871 
	C2255.330811,1122.895874 2254.651611,1156.845581 2254.393066,1190.798584 
	C2254.327393,1199.413208 2255.566895,1208.034912 2255.572754,1216.653687 
	C2255.582520,1230.695679 2257.215332,1244.507935 2260.128662,1258.203857 
	C2267.462891,1292.682495 2284.580811,1320.475830 2315.299316,1338.996338 
	C2331.415283,1348.712891 2348.934570,1354.977051 2367.031982,1359.627319 
	C2376.664307,1362.102539 2386.478027,1365.092896 2396.290527,1365.417358 
	C2425.252930,1366.375122 2454.259766,1365.890259 2483.239014,1366.484985 
	C2491.454590,1366.653564 2496.002930,1360.264648 2502.616455,1357.719971 
	C2503.593262,1357.344116 2504.136719,1354.900635 2504.246338,1353.368530 
	C2504.837158,1345.093018 2505.467529,1336.808105 2505.629883,1328.517578 
	C2505.858398,1316.855469 2505.446777,1305.178833 2505.771729,1293.521362 
	C2505.997314,1285.428223 2507.002686,1277.356934 2507.659912,1269.275879 
	C2508.384033,1269.243530 2509.108398,1269.211182 2509.832520,1269.178833 
	C2510.642090,1272.301636 2511.599121,1275.394775 2512.236572,1278.552368 
	C2515.589600,1295.157715 2518.047607,1311.991699 2522.310547,1328.356934 
	C2536.450195,1382.635742 2567.911865,1424.755981 2614.726074,1455.176880 
	C2646.137939,1475.588867 2681.287598,1486.903320 2717.889404,1493.597900 
	C2751.873291,1499.813843 2785.935059,1500.784058 2819.796631,1492.270020 
	C2874.636475,1478.481567 2908.817871,1444.213501 2922.140137,1389.175781 
	C2926.388916,1371.623169 2927.872559,1353.760132 2928.030518,1335.805664 
	C2928.220947,1314.158936 2928.300049,1292.489014 2927.479248,1270.865112 
	C2927.056641,1259.734253 2922.732422,1249.186768 2906.297607,1247.605835 
	C2901.684814,1247.162109 2897.063477,1246.322266 2892.456055,1246.386108 
	C2872.168701,1246.666504 2851.882324,1247.615967 2831.601074,1247.477661 
	C2822.392334,1247.414795 2813.100586,1245.878784 2804.023926,1244.103882 
	C2795.746094,1242.484985 2790.530762,1236.998535 2789.744873,1228.264038 
	C2788.496338,1214.390259 2786.500488,1200.494141 2786.536133,1186.611816 
	C2786.624512,1152.005005 2788.174316,1117.401611 2788.241211,1082.795044 
	C2788.375000,1013.809631 2787.968262,944.822632 2787.652588,875.836975 
	C2787.551758,853.840393 2785.097168,832.066345 2779.815186,810.682922 
	C2772.085449,779.389832 2756.377197,752.955139 2731.567139,732.108398 
	C2716.584717,719.519470 2699.117676,711.372803 2681.381592,703.657166 
	C2679.114746,702.671143 2677.072998,701.168030 2673.827148,699.256958 
	C2682.316895,695.895447 2689.359863,692.939880 2696.520752,690.305725 
	C2711.905518,684.646545 2727.017578,678.187866 2739.678955,667.698669 
	C2787.049805,628.455261 2810.424316,578.516968 2799.672607,516.958130 
	C2789.487793,458.645355 2754.538818,418.815521 2699.076416,397.692108 
	C2677.997559,389.663879 2656.000732,388.103577 2633.477295,389.502991 
	C2589.785645,392.217621 2554.096924,410.083252 2526.590332,443.995117 
	C2504.926514,470.703644 2493.660889,501.717834 2491.948242,535.830200 
	C2489.667969,581.255432 2503.578125,621.032715 2536.123047,653.598389 
	C2548.738770,666.222046 2563.516602,675.717957 2579.432617,683.609558 
	C2582.727295,685.243347 2587.173340,685.940430 2588.089600,691.684143 
	C2585.736572,691.928406 2583.908936,692.236694 2582.073975,692.290222 
	C2565.456543,692.774170 2548.835938,693.162231 2532.219727,693.681702 
	C2518.083740,694.123535 2510.715088,700.409668 2508.234131,714.216919 
	C2507.355713,719.105713 2506.436523,724.072937 2506.395020,729.011597 
	C2506.202393,751.984436 2506.311279,774.959900 2506.311768,797.934387 
	C2506.312256,839.933838 2506.312012,881.933350 2506.312012,923.932800 
	C2506.312012,927.152649 2506.312012,930.372559 2506.312012,933.342957 
	C2500.298584,934.905457 2499.585938,930.986816 2498.666260,928.015015 
	C2497.392334,923.899048 2496.838623,919.566589 2495.768555,915.379944 
	C2482.988037,865.362793 2459.698242,821.208862 2418.950684,788.653809 
	C2351.475830,734.745300 2274.592285,713.823425 2188.968262,728.540039 
	C2168.301758,732.092102 2148.272949,738.521851 2129.768799,748.851868 
	C2116.984375,755.988708 2104.242188,763.201294 2091.500732,770.414673 
	C2086.702881,773.130981 2082.621582,772.775574 2077.791992,769.533386 
	C2066.199219,761.751343 2054.577881,753.775757 2042.133911,747.544006 
	C2010.359497,731.631714 1975.950439,725.974548 1940.836670,724.412781 
	C1915.184570,723.271973 1889.670410,725.490723 1864.434692,730.292969 
	C1837.221924,735.471558 1810.566284,742.713745 1785.829224,755.431885 
	C1733.035034,782.575256 1696.245972,824.925598 1672.503906,878.630432 
	C1664.095947,897.649170 1658.647339,917.976135 1651.896851,937.563110 
	C1651.502563,936.102051 1650.592163,934.004333 1650.411255,931.845337 
	C1649.412231,919.929504 1649.278320,907.896790 1647.527344,896.100098 
	C1645.536255,882.686035 1644.007935,868.735962 1639.033813,856.318542 
	C1623.442505,817.395142 1593.527100,793.149475 1554.369385,780.132690 
	C1528.515381,771.538330 1501.329468,771.764465 1474.492554,770.438721 
	C1460.194336,769.732483 1445.832520,770.291504 1431.499390,770.318420 
	C1407.182007,770.364014 1400.150879,777.260864 1399.700562,801.898376 
	C1399.477051,814.127014 1399.654541,826.363098 1399.654419,838.595825 
	C1399.653809,932.261292 1399.838013,1025.927490 1399.448242,1119.591431 
	C1399.392090,1133.080078 1397.982422,1146.615967 1394.672729,1160.022339 
	C1389.970459,1179.070190 1365.672119,1184.297485 1352.429443,1171.012939 
	C1344.214966,1162.772461 1337.820068,1153.333496 1336.105469,1141.873779 
	C1333.556152,1124.833496 1331.166382,1107.647583 1330.611694,1090.462158 
	C1329.936646,1069.546021 1331.143677,1048.563843 1331.707886,1027.614746 
	C1332.253784,1007.338989 1333.295166,987.073425 1333.616577,966.795471 
	C1334.044067,939.843628 1332.630981,912.984802 1328.012573,886.359314 
	C1318.515625,831.606750 1287.362915,795.743835 1234.249023,779.357178 
	C1215.114624,773.453857 1195.283691,771.168030 1175.312012,770.337952 
	C1163.787354,769.858948 1152.252441,769.627441 1139.556030,769.249878 
	C1141.283203,764.321960 1142.257446,760.119324 1144.159546,756.389954 
	C1149.298950,746.312988 1154.539185,736.264954 1160.262573,726.512451 
	C1182.830811,688.056519 1206.221313,650.068176 1228.090088,611.221436 
	C1244.415405,582.221985 1258.152588,551.832703 1268.718140,520.176147 
	C1277.912598,492.626892 1281.702026,464.451111 1275.819092,435.654053 
	C1265.220459,383.773193 1234.959595,350.389618 1182.968506,337.385010 
	C1162.178589,332.184814 1141.055664,330.329193 1119.781250,329.736359 
	C1104.127563,329.300140 1088.452881,329.685272 1072.790894,329.464142 
	C1058.501221,329.262451 1044.208252,328.252350 1029.930908,328.482788 
	C1013.512817,328.747864 1002.362366,336.658020 997.741150,353.031189 
	C995.576111,360.702271 992.467041,368.102448 990.156738,375.737671 
	C977.128052,418.796997 961.588745,460.914764 941.927612,501.392639 
	C927.677307,530.730591 912.950378,559.852417 897.742493,588.705017 
	C885.956482,611.065674 873.178833,632.907288 860.633240,654.860291 
	C858.599854,658.418396 855.479370,661.355347 851.985657,665.657776 
	C847.813538,660.392578 844.048340,656.623169 841.440247,652.175293 
	C831.510986,635.241821 821.242615,618.449341 812.401917,600.947021 
	C791.237244,559.046814 770.766724,516.795349 750.108215,474.640472 
	C742.785950,459.698730 736.035095,444.470398 728.458984,429.661621 
	C722.269287,417.562744 716.749573,404.666107 708.294983,394.267883 
	C684.633728,365.166718 652.973938,348.059662 617.107605,338.314880 
	C591.859497,331.455078 565.919434,330.152008 540.017151,329.811462 
	C498.024933,329.259308 456.019958,329.600647 414.021027,329.754547 
	C409.784973,329.770081 405.353149,330.516449 401.360565,331.916870 
	C392.126862,335.155609 388.985565,341.038544 390.637543,350.511414 
	C391.093750,353.127289 391.640259,355.727234 392.118134,358.339478 
	C394.927032,373.694641 396.269989,389.493378 400.770874,404.334717 
	C427.575439,492.720612 462.060425,578.146606 503.370300,660.709045 
	C521.825989,697.594788 541.869446,733.724670 562.224487,769.612061 
	C590.315796,819.139221 620.261719,867.560181 652.947021,914.234009 
	C657.912720,921.324890 662.968445,928.357361 667.758850,935.565430 
	C676.043823,948.031921 680.936890,961.405762 680.443054,976.804016 
	C679.716919,999.440979 679.662048,1022.106628 679.698181,1044.759399 
	C679.781067,1096.745850 679.970581,1148.732666 680.359985,1200.717651 
	C680.560608,1227.493530 684.833740,1253.666870 693.832581,1278.953857 
	C711.553650,1328.750122 745.496338,1362.815796 794.753357,1381.366455 
	C820.544861,1391.079834 847.797791,1393.662476 875.108093,1394.206787 
	C904.429382,1394.791016 933.772583,1394.481934 963.103577,1394.244019 
	C971.038086,1394.179688 978.993225,1393.199463 986.884888,1392.209229 
	C996.177490,1391.043213 1000.752014,1384.769043 1002.106567,1376.128174 
	C1003.079346,1369.922729 1003.620361,1363.582520 1003.624512,1357.302124 
	C1003.708740,1228.637085 1003.741028,1099.971924 1003.591064,971.307068 
	C1003.578491,960.519714 1006.109924,950.918213 1012.596497,942.377991 
	C1019.438965,933.369385 1026.520752,924.539001 1033.224976,915.429810 
	C1044.268188,900.424866 1055.022827,885.207642 1066.054565,870.194153 
	C1068.950684,866.252563 1071.810913,861.970642 1077.618896,860.843933 
	C1078.500977,864.233337 1079.891113,867.403809 1080.073486,870.642273 
	C1080.987915,886.890564 1082.248413,903.160339 1082.155640,919.415588 
	C1081.975342,951.023682 1080.496338,982.626221 1080.435303,1014.232727 
	C1080.362061,1052.183594 1081.130493,1090.137329 1081.682373,1128.087646 
	C1082.026367,1151.746338 1084.607910,1175.187500 1090.160156,1198.205200 
	C1103.787109,1254.697388 1130.623535,1303.454346 1174.625000,1342.215454 
	C1221.582031,1383.580200 1276.831543,1404.859009 1338.654541,1409.571777 
	C1365.537476,1411.620972 1392.552734,1411.310547 1419.377808,1407.651367 
	C1451.517212,1403.267090 1482.684570,1395.435547 1513.286865,1380.317993 
z"/>
<path fill="#FEFEFE" opacity="1.000000" stroke="none" 
	d="
M1049.858154,2064.321533 
	C1033.589600,2064.321533 1018.299561,2064.321533 1002.342773,2064.321533 
	C1002.342773,2018.391113 1002.342773,1972.951660 1002.342773,1926.861206 
	C1017.957031,1926.861206 1033.506836,1926.428711 1049.019043,1927.006226 
	C1060.240356,1927.423950 1071.455200,1928.514648 1082.092773,1933.114990 
	C1101.005127,1941.293457 1113.470703,1954.648071 1118.796143,1974.855225 
	C1123.271973,1991.838623 1122.776611,2008.437012 1116.291504,2024.616089 
	C1105.784912,2050.827881 1084.411987,2061.532715 1057.831299,2064.279053 
	C1055.522827,2064.517578 1053.169312,2064.317627 1049.858154,2064.321533 
z"/>
<path fill="#FDFCFC" opacity="1.000000" stroke="none" 
	d="
M2135.310547,2003.663086 
	C2119.835449,2003.663452 2105.290283,2003.663452 2090.211914,2003.663452 
	C2090.211914,1977.671753 2090.211914,1952.581787 2090.211914,1926.815552 
	C2105.928955,1926.815552 2121.429688,1926.643799 2136.922607,1926.916016 
	C2141.834961,1927.002319 2146.891602,1927.711426 2151.600586,1929.094727 
	C2177.452637,1936.688354 2180.615967,1956.834839 2177.474609,1974.849609 
	C2174.883545,1989.710571 2164.542480,1997.456177 2150.913086,2001.360352 
	C2146.189941,2002.713501 2141.140381,2002.928223 2135.310547,2003.663086 
z"/>
<path fill="#FFFDFB" opacity="1.000000" stroke="none" 
	d="
M1512.594727,1380.611084 
	C1482.684570,1395.435547 1451.517212,1403.267090 1419.377808,1407.651367 
	C1392.552734,1411.310547 1365.537476,1411.620972 1338.654541,1409.571777 
	C1276.831543,1404.859009 1221.582031,1383.580200 1174.625000,1342.215454 
	C1130.623535,1303.454346 1103.787109,1254.697388 1090.160156,1198.205200 
	C1084.607910,1175.187500 1082.026367,1151.746338 1081.682373,1128.087646 
	C1081.130493,1090.137329 1080.362061,1052.183594 1080.435303,1014.232727 
	C1080.496338,982.626221 1081.975342,951.023682 1082.155640,919.415588 
	C1082.248413,903.160339 1080.987915,886.890564 1080.073486,870.642273 
	C1079.891113,867.403809 1078.500977,864.233337 1077.618896,860.843933 
	C1071.810913,861.970642 1068.950684,866.252563 1066.054565,870.194153 
	C1055.022827,885.207642 1044.268188,900.424866 1033.224976,915.429810 
	C1026.520752,924.539001 1019.438965,933.369385 1012.596497,942.377991 
	C1006.109924,950.918213 1003.578491,960.519714 1003.591064,971.307068 
	C1003.741028,1099.971924 1003.708740,1228.637085 1003.624512,1357.302124 
	C1003.620361,1363.582520 1003.079346,1369.922729 1002.106567,1376.128174 
	C1000.752014,1384.769043 996.177490,1391.043213 986.884888,1392.209229 
	C978.993225,1393.199463 971.038086,1394.179688 963.103577,1394.244019 
	C933.772583,1394.481934 904.429382,1394.791016 875.108093,1394.206787 
	C847.797791,1393.662476 820.544861,1391.079834 794.753357,1381.366455 
	C745.496338,1362.815796 711.553650,1328.750122 693.832581,1278.953857 
	C684.833740,1253.666870 680.560608,1227.493530 680.359985,1200.717651 
	C679.970581,1148.732666 679.781067,1096.745850 679.698181,1044.759399 
	C679.662048,1022.106628 679.716919,999.440979 680.443054,976.804016 
	C680.936890,961.405762 676.043823,948.031921 667.758850,935.565430 
	C662.968445,928.357361 657.912720,921.324890 652.947021,914.234009 
	C620.261719,867.560181 590.315796,819.139221 562.224487,769.612061 
	C541.869446,733.724670 521.825989,697.594788 503.370300,660.709045 
	C462.060425,578.146606 427.575439,492.720612 400.770874,404.334717 
	C396.269989,389.493378 394.927032,373.694641 392.118134,358.339478 
	C391.640259,355.727234 391.093750,353.127289 390.637543,350.511414 
	C388.985565,341.038544 392.126862,335.155609 401.360565,331.916870 
	C405.353149,330.516449 409.784973,329.770081 414.021027,329.754547 
	C456.019958,329.600647 498.024933,329.259308 540.017151,329.811462 
	C565.919434,330.152008 591.859497,331.455078 617.107605,338.314880 
	C652.973938,348.059662 684.633728,365.166718 708.294983,394.267883 
	C716.749573,404.666107 722.269287,417.562744 728.458984,429.661621 
	C736.035095,444.470398 742.785950,459.698730 750.108215,474.640472 
	C770.766724,516.795349 791.237244,559.046814 812.401917,600.947021 
	C821.242615,618.449341 831.510986,635.241821 841.440247,652.175293 
	C844.048340,656.623169 847.813538,660.392578 851.985657,665.657776 
	C855.479370,661.355347 858.599854,658.418396 860.633240,654.860291 
	C873.178833,632.907288 885.956482,611.065674 897.742493,588.705017 
	C912.950378,559.852417 927.677307,530.730591 941.927612,501.392639 
	C961.588745,460.914764 977.128052,418.796997 990.156738,375.737671 
	C992.467041,368.102448 995.576111,360.702271 997.741150,353.031189 
	C1002.362366,336.658020 1013.512817,328.747864 1029.930908,328.482788 
	C1044.208252,328.252350 1058.501221,329.262451 1072.790894,329.464142 
	C1088.452881,329.685272 1104.127563,329.300140 1119.781250,329.736359 
	C1141.055664,330.329193 1162.178589,332.184814 1182.968506,337.385010 
	C1234.959595,350.389618 1265.220459,383.773193 1275.819092,435.654053 
	C1281.702026,464.451111 1277.912598,492.626892 1268.718140,520.176147 
	C1258.152588,551.832703 1244.415405,582.221985 1228.090088,611.221436 
	C1206.221313,650.068176 1182.830811,688.056519 1160.262573,726.512451 
	C1154.539185,736.264954 1149.298950,746.312988 1144.159546,756.389954 
	C1142.257446,760.119324 1141.283203,764.321960 1139.556030,769.249878 
	C1152.252441,769.627441 1163.787354,769.858948 1175.312012,770.337952 
	C1195.283691,771.168030 1215.114624,773.453857 1234.249023,779.357178 
	C1287.362915,795.743835 1318.515625,831.606750 1328.012573,886.359314 
	C1332.630981,912.984802 1334.044067,939.843628 1333.616577,966.795471 
	C1333.295166,987.073425 1332.253784,1007.338989 1331.707886,1027.614746 
	C1331.143677,1048.563843 1329.936646,1069.546021 1330.611694,1090.462158 
	C1331.166382,1107.647583 1333.556152,1124.833496 1336.105469,1141.873779 
	C1337.820068,1153.333496 1344.214966,1162.772461 1352.429443,1171.012939 
	C1365.672119,1184.297485 1389.970459,1179.070190 1394.672729,1160.022339 
	C1397.982422,1146.615967 1399.392090,1133.080078 1399.448242,1119.591431 
	C1399.838013,1025.927490 1399.653809,932.261292 1399.654419,838.595825 
	C1399.654541,826.363098 1399.477051,814.127014 1399.700562,801.898376 
	C1400.150879,777.260864 1407.182007,770.364014 1431.499390,770.318420 
	C1445.832520,770.291504 1460.194336,769.732483 1474.492554,770.438721 
	C1501.329468,771.764465 1528.515381,771.538330 1554.369385,780.132690 
	C1593.527100,793.149475 1623.442505,817.395142 1639.033813,856.318542 
	C1644.007935,868.735962 1645.536255,882.686035 1647.527344,896.100098 
	C1649.278320,907.896790 1649.412231,919.929504 1650.411255,931.845337 
	C1650.592163,934.004333 1651.502563,936.102051 1651.896851,937.563110 
	C1658.647339,917.976135 1664.095947,897.649170 1672.503906,878.630432 
	C1696.245972,824.925598 1733.035034,782.575256 1785.829224,755.431885 
	C1810.566284,742.713745 1837.221924,735.471558 1864.434692,730.292969 
	C1889.670410,725.490723 1915.184570,723.271973 1940.836670,724.412781 
	C1975.950439,725.974548 2010.359497,731.631714 2042.133911,747.544006 
	C2054.577881,753.775757 2066.199219,761.751343 2077.791992,769.533386 
	C2082.621582,772.775574 2086.702881,773.130981 2091.500732,770.414673 
	C2104.242188,763.201294 2116.984375,755.988708 2129.768799,748.851868 
	C2148.272949,738.521851 2168.301758,732.092102 2188.968262,728.540039 
	C2274.592285,713.823425 2351.475830,734.745300 2418.950684,788.653809 
	C2459.698242,821.208862 2482.988037,865.362793 2495.768555,915.379944 
	C2496.838623,919.566589 2497.392334,923.899048 2498.666260,928.015015 
	C2499.585938,930.986816 2500.298584,934.905457 2506.312012,933.342957 
	C2506.312012,930.372559 2506.312012,927.152649 2506.312012,923.932800 
	C2506.312012,881.933350 2506.312256,839.933838 2506.311768,797.934387 
	C2506.311279,774.959900 2506.202393,751.984436 2506.395020,729.011597 
	C2506.436523,724.072937 2507.355713,719.105713 2508.234131,714.216919 
	C2510.715088,700.409668 2518.083740,694.123535 2532.219727,693.681702 
	C2548.835938,693.162231 2565.456543,692.774170 2582.073975,692.290222 
	C2583.908936,692.236694 2585.736572,691.928406 2588.089600,691.684143 
	C2587.173340,685.940430 2582.727295,685.243347 2579.432617,683.609558 
	C2563.516602,675.717957 2548.738770,666.222046 2536.123047,653.598389 
	C2503.578125,621.032715 2489.667969,581.255432 2491.948242,535.830200 
	C2493.660889,501.717834 2504.926514,470.703644 2526.590332,443.995117 
	C2554.096924,410.083252 2589.785645,392.217621 2633.477295,389.502991 
	C2656.000732,388.103577 2677.997559,389.663879 2699.076416,397.692108 
	C2754.538818,418.815521 2789.487793,458.645355 2799.672607,516.958130 
	C2810.424316,578.516968 2787.049805,628.455261 2739.678955,667.698669 
	C2727.017578,678.187866 2711.905518,684.646545 2696.520752,690.305725 
	C2689.359863,692.939880 2682.316895,695.895447 2673.827148,699.256958 
	C2677.072998,701.168030 2679.114746,702.671143 2681.381592,703.657166 
	C2699.117676,711.372803 2716.584717,719.519470 2731.567139,732.108398 
	C2756.377197,752.955139 2772.085449,779.389832 2779.815186,810.682922 
	C2785.097168,832.066345 2787.551758,853.840393 2787.652588,875.836975 
	C2787.968262,944.822632 2788.375000,1013.809631 2788.241211,1082.795044 
	C2788.174316,1117.401611 2786.624512,1152.005005 2786.536133,1186.611816 
	C2786.500488,1200.494141 2788.496338,1214.390259 2789.744873,1228.264038 
	C2790.530762,1236.998535 2795.746094,1242.484985 2804.023926,1244.103882 
	C2813.100586,1245.878784 2822.392334,1247.414795 2831.601074,1247.477661 
	C2851.882324,1247.615967 2872.168701,1246.666504 2892.456055,1246.386108 
	C2897.063477,1246.322266 2901.684814,1247.162109 2906.297607,1247.605835 
	C2922.732422,1249.186768 2927.056641,1259.734253 2927.479248,1270.865112 
	C2928.300049,1292.489014 2928.220947,1314.158936 2928.030518,1335.805664 
	C2927.872559,1353.760132 2926.388916,1371.623169 2922.140137,1389.175781 
	C2908.817871,1444.213501 2874.636475,1478.481567 2819.796631,1492.270020 
	C2785.935059,1500.784058 2751.873291,1499.813843 2717.889404,1493.597900 
	C2681.287598,1486.903320 2646.137939,1475.588867 2614.726074,1455.176880 
	C2567.911865,1424.755981 2536.450195,1382.635742 2522.310547,1328.356934 
	C2518.047607,1311.991699 2515.589600,1295.157715 2512.236572,1278.552368 
	C2511.599121,1275.394775 2510.642090,1272.301636 2509.832520,1269.178833 
	C2509.108398,1269.211182 2508.384033,1269.243530 2507.659912,1269.275879 
	C2507.002686,1277.356934 2505.997314,1285.428223 2505.771729,1293.521362 
	C2505.446777,1305.178833 2505.858398,1316.855469 2505.629883,1328.517578 
	C2505.467529,1336.808105 2504.837158,1345.093018 2504.246338,1353.368530 
	C2504.136719,1354.900635 2503.593262,1357.344116 2502.616455,1357.719971 
	C2496.002930,1360.264648 2491.454590,1366.653564 2483.239014,1366.484985 
	C2454.259766,1365.890259 2425.252930,1366.375122 2396.290527,1365.417358 
	C2386.478027,1365.092896 2376.664307,1362.102539 2367.031982,1359.627319 
	C2348.934570,1354.977051 2331.415283,1348.712891 2315.299316,1338.996338 
	C2284.580811,1320.475830 2267.462891,1292.682495 2260.128662,1258.203857 
	C2257.215332,1244.507935 2255.582520,1230.695679 2255.572754,1216.653687 
	C2255.566895,1208.034912 2254.327393,1199.413208 2254.393066,1190.798584 
	C2254.651611,1156.845581 2255.330811,1122.895874 2255.575928,1088.942871 
	C2255.645508,1079.327881 2254.368408,1069.703613 2254.424561,1060.087646 
	C2254.512207,1045.133667 2255.920898,1030.160034 2255.434814,1015.238281 
	C2255.026855,1002.711243 2254.454834,990.036987 2250.297363,977.878418 
	C2246.332275,966.283203 2238.360352,958.920288 2223.233154,958.370911 
	C2216.353516,958.120972 2210.712402,960.750732 2207.607666,967.060852 
	C2205.281494,971.789001 2202.838867,976.741394 2201.972900,981.852234 
	C2199.597168,995.873413 2197.616943,1009.883057 2199.372803,1024.342407 
	C2200.770996,1035.855591 2200.302002,1047.619995 2200.312500,1059.273193 
	C2200.378418,1131.605591 2200.280518,1203.938232 2200.406006,1276.270386 
	C2200.428711,1289.223267 2201.844971,1302.191162 2201.494629,1315.121704 
	C2201.217285,1325.345825 2199.287842,1335.532593 2197.927002,1345.713867 
	C2197.622803,1347.990112 2196.691895,1350.195679 2195.941162,1352.396729 
	C2193.372803,1359.923828 2189.349854,1364.219971 2180.128174,1364.219482 
	C2165.902832,1364.218506 2151.661865,1367.286987 2137.455322,1367.086792 
	C2102.244629,1366.590454 2067.119873,1365.427979 2033.853149,1350.973145 
	C1999.773071,1336.165039 1976.880005,1311.314087 1963.928955,1276.975708 
	C1954.574097,1252.172363 1950.358643,1226.291260 1949.696777,1199.857178 
	C1949.055298,1174.243408 1948.292847,1148.618530 1948.433594,1123.003052 
	C1948.612793,1090.394897 1949.890503,1057.793579 1950.184326,1025.184814 
	C1950.291626,1013.255249 1949.086426,1001.301270 1948.168823,989.382385 
	C1947.865479,985.442627 1946.916748,981.471130 1945.695068,977.697937 
	C1940.994751,963.179199 1925.299194,955.235352 1911.212646,960.827881 
	C1908.074829,962.073608 1905.034912,966.163452 1903.991211,969.569397 
	C1901.473511,977.784180 1899.201782,986.296570 1898.559448,994.819275 
	C1897.061157,1014.699707 1895.893677,1034.654419 1895.822021,1054.583496 
	C1895.638428,1105.568359 1895.938843,1156.557251 1896.414795,1207.541260 
	C1896.706665,1238.816772 1897.969849,1270.083862 1898.194458,1301.359131 
	C1898.277710,1312.942993 1897.202515,1324.614624 1895.664795,1336.113647 
	C1892.761108,1357.830200 1881.286743,1367.807129 1859.336792,1367.587646 
	C1838.060181,1367.374878 1816.789062,1366.423218 1795.520264,1365.664062 
	C1779.523560,1365.093262 1763.645630,1363.394287 1748.555786,1357.690430 
	C1719.062866,1346.542236 1693.049438,1330.319092 1674.046509,1304.505981 
	C1659.659424,1284.962769 1653.075562,1262.365112 1649.755859,1238.720093 
	C1647.927979,1225.700195 1646.855469,1212.574097 1644.242065,1199.011841 
	C1642.812988,1202.849731 1641.099243,1206.608276 1640.001221,1210.538574 
	C1633.103882,1235.228882 1625.999634,1259.816040 1613.962769,1282.666382 
	C1591.029297,1326.202637 1557.584351,1358.838867 1512.594727,1380.611084 
M457.794128,364.345398 
	C453.525940,364.876740 449.211639,365.170685 444.999207,365.989075 
	C436.369537,367.665497 431.917816,373.725586 433.161011,382.474915 
	C433.998077,388.365936 434.978790,394.354492 436.901703,399.953766 
	C448.014099,432.311584 458.695190,464.845367 470.885712,496.799438 
	C497.816010,567.389954 530.211182,635.496155 565.758240,702.157776 
	C593.954712,755.034912 624.810059,806.287720 657.764893,856.293945 
	C673.147705,879.636108 688.957153,902.699158 704.734802,925.778259 
	C712.431396,937.036804 717.183838,948.753296 716.552185,962.950806 
	C715.546082,985.562134 715.754028,1008.233582 715.709412,1030.880127 
	C715.612183,1080.203979 715.506409,1129.529175 715.774597,1178.851685 
	C715.866638,1195.779297 716.161621,1212.795166 717.918579,1229.608154 
	C723.633606,1284.297485 753.479187,1321.899292 801.971252,1345.954346 
	C820.684570,1355.237183 841.020081,1356.503174 861.114807,1357.374390 
	C887.028931,1358.497925 913.032715,1357.905151 938.989075,1357.495361 
	C947.102905,1357.367310 955.188416,1355.439941 964.046875,1354.232544 
	C965.306030,1338.706177 967.038696,1324.229126 967.526123,1309.710327 
	C968.252197,1288.080566 968.315186,1266.421021 968.278320,1244.774780 
	C968.184631,1189.800781 967.821411,1134.827393 967.677551,1079.853516 
	C967.576355,1041.194458 968.217773,1002.523010 967.400513,963.880981 
	C967.039795,946.827393 972.181458,933.089844 982.993469,920.201111 
	C1014.880066,882.190063 1043.692627,841.836182 1070.792114,800.324890 
	C1098.795166,757.429504 1126.405884,714.259033 1153.255371,670.634766 
	C1180.448486,626.452393 1205.696045,581.161011 1225.359009,532.969177 
	C1234.959229,509.439484 1242.806274,485.677002 1242.398193,459.769409 
	C1241.784546,420.815338 1220.923340,390.247101 1185.067627,375.231781 
	C1166.254517,367.353394 1146.494873,365.452057 1126.669800,364.553375 
	C1102.729614,363.468170 1078.718628,363.609558 1054.742188,363.777679 
	C1037.350464,363.899597 1031.250977,368.727203 1025.245850,385.083832 
	C1024.673340,386.643219 1024.147461,388.221313 1023.651245,389.806763 
	C1012.624146,425.035767 1000.149780,459.738251 984.125732,493.023712 
	C962.349487,538.257751 940.562927,583.498169 917.889526,628.284668 
	C904.534607,654.664307 889.784119,680.360840 874.992004,705.978149 
	C868.904297,716.520935 862.496887,727.165405 852.380310,735.783875 
	C849.814819,733.333740 847.008850,731.421570 845.225830,728.810913 
	C839.222778,720.021301 833.039246,711.283752 827.905884,701.984619 
	C811.679749,672.591187 795.220093,643.294739 780.091248,613.334412 
	C751.308289,556.334045 722.788330,499.182404 695.440491,441.486267 
	C686.383789,422.379272 673.814148,407.567657 657.175720,395.358887 
	C631.624268,376.610107 602.226746,368.979553 571.400757,366.550476 
	C549.556885,364.829193 527.566589,364.838043 505.635193,364.401245 
	C490.310852,364.096008 474.975494,364.342743 457.794128,364.345398 
M1999.800781,1270.985229 
	C2010.580688,1292.310303 2026.902466,1307.992188 2048.946289,1317.012817 
	C2070.332275,1325.763916 2092.884277,1329.832764 2115.994873,1330.280640 
	C2130.591553,1330.563599 2145.273926,1331.076660 2159.883545,1325.409058 
	C2160.615723,1322.203857 2161.860840,1318.727173 2162.144287,1315.173828 
	C2163.461670,1298.652100 2165.469482,1282.110107 2165.481445,1265.573975 
	C2165.518799,1213.636230 2164.647705,1161.698608 2164.364990,1109.759644 
	C2164.158203,1071.798340 2163.949219,1033.829224 2164.533447,995.875793 
	C2164.731201,983.029541 2166.660889,970.118713 2171.573730,957.904968 
	C2176.189209,946.430603 2183.252441,936.939575 2193.733643,930.388550 
	C2216.112549,916.400940 2247.446045,920.410889 2267.588867,938.906616 
	C2281.040527,951.258240 2285.221436,967.367554 2287.703369,984.322754 
	C2292.535400,1017.332458 2291.770264,1050.637817 2292.045898,1083.834106 
	C2292.299805,1114.419800 2290.919189,1145.017700 2290.370117,1175.612183 
	C2290.184814,1185.940796 2289.861816,1196.303223 2290.459961,1206.600342 
	C2291.228027,1219.816650 2291.770996,1233.198730 2294.333984,1246.128296 
	C2301.149902,1280.515381 2320.882568,1304.923828 2353.528320,1318.493530 
	C2386.900391,1332.364990 2421.475586,1332.390015 2456.432373,1327.263184 
	C2464.873779,1326.025146 2466.248535,1324.144043 2467.602295,1315.869141 
	C2467.923828,1313.902832 2468.127930,1311.903564 2468.203125,1309.912720 
	C2468.931396,1290.655273 2470.180664,1271.397461 2470.214111,1252.137817 
	C2470.305664,1199.495239 2469.839355,1146.851929 2469.675537,1094.208618 
	C2469.585449,1065.213013 2469.597656,1036.216675 2469.678955,1007.221008 
	C2469.743408,984.269958 2468.229004,961.409180 2464.137451,938.855286 
	C2455.767334,892.715210 2435.576172,852.836853 2400.487061,820.947815 
	C2357.774170,782.130371 2306.661133,764.299072 2250.033203,760.465881 
	C2231.776855,759.230103 2213.496094,760.567017 2195.493408,764.293457 
	C2163.109375,770.996826 2133.217041,782.950867 2108.100586,805.269287 
	C2100.748779,811.802307 2092.791260,817.653992 2084.958984,823.940247 
	C2079.413086,818.973755 2074.684082,814.824036 2070.048828,810.572388 
	C2054.007324,795.859070 2036.690308,783.278259 2016.036011,775.518433 
	C1985.783325,764.152466 1954.653809,759.452026 1922.354980,759.468445 
	C1878.471802,759.490723 1837.379639,769.593872 1799.133179,790.735107 
	C1741.980347,822.327148 1706.987671,870.807312 1692.290283,934.104919 
	C1684.522827,967.557739 1681.750610,1001.631592 1681.741089,1035.894897 
	C1681.726074,1090.204468 1681.874023,1144.516846 1682.507935,1198.821533 
	C1682.673706,1213.021729 1683.470581,1227.501831 1686.430420,1241.328247 
	C1695.218994,1282.383179 1719.932617,1309.922119 1760.281128,1322.455078 
	C1786.697388,1330.660645 1814.168091,1329.316895 1841.334595,1329.390259 
	C1851.443726,1329.417603 1856.834717,1325.276001 1858.311646,1314.789062 
	C1858.909180,1310.544922 1859.598877,1306.260498 1859.602905,1301.993896 
	C1859.679321,1221.005371 1859.659424,1140.016724 1859.658081,1059.028198 
	C1859.658081,1056.695190 1859.945312,1054.314819 1859.587769,1052.036743 
	C1856.355835,1031.443970 1858.898438,1010.905334 1860.532837,990.425415 
	C1861.264282,981.259277 1863.422974,972.023560 1866.248779,963.242554 
	C1874.619751,937.229736 1894.880005,923.694153 1919.514771,922.376404 
	C1944.625122,921.033264 1970.928589,935.843506 1979.991211,967.545471 
	C1984.405884,982.988770 1986.325439,998.748413 1986.331909,1014.763489 
	C1986.354736,1072.421997 1986.274536,1130.080688 1986.400635,1187.738892 
	C1986.423828,1198.349854 1987.515259,1208.956909 1987.603760,1219.569946 
	C1987.750488,1237.152222 1991.883179,1253.735352 1999.800781,1270.985229 
M1614.321411,964.998901 
	C1614.100586,953.681580 1613.823364,942.365051 1613.671509,931.046814 
	C1613.421021,912.364807 1611.248169,893.893616 1605.781372,876.042358 
	C1596.519165,845.797546 1577.466919,824.217896 1546.863525,814.622437 
	C1534.618530,810.783325 1521.713379,808.106506 1508.938354,807.131226 
	C1491.506226,805.800354 1474.071655,802.513550 1456.382202,805.564331 
	C1443.343018,807.812988 1436.438843,814.124634 1435.785156,827.020386 
	C1435.078979,840.953064 1434.417725,854.908264 1434.440308,868.852478 
	C1434.467773,885.798584 1435.317627,902.741882 1435.650146,919.689514 
	C1435.983398,936.671143 1436.447632,953.660034 1436.277588,970.639954 
	C1435.750488,1023.236572 1438.302856,1075.888306 1434.180664,1128.414062 
	C1433.069092,1142.577026 1431.074585,1156.842041 1427.673096,1170.612671 
	C1422.898804,1189.940674 1410.544556,1203.681152 1391.263306,1209.675659 
	C1357.758911,1220.092529 1318.016235,1202.702271 1305.952759,1166.494873 
	C1298.399414,1143.823853 1295.836182,1120.440063 1295.817749,1096.826172 
	C1295.796753,1069.897217 1297.137451,1042.969971 1297.612061,1016.037170 
	C1298.040527,991.723450 1298.955566,967.370911 1298.041870,943.096252 
	C1297.346191,924.611694 1295.216309,906.015381 1291.779297,887.836609 
	C1285.867188,856.566406 1269.110596,832.976135 1239.119141,819.774780 
	C1220.936768,811.771423 1201.925293,807.609314 1182.270752,806.455139 
	C1168.652832,805.655334 1154.944580,805.246582 1141.328979,805.848389 
	C1125.108887,806.565308 1119.890015,810.315552 1117.795654,825.713135 
	C1116.461060,835.526184 1116.023438,845.533142 1116.087891,855.447205 
	C1116.178223,869.385071 1117.611206,883.319031 1117.570923,897.252014 
	C1117.493042,924.198303 1116.374023,951.143738 1116.434692,978.087891 
	C1116.533691,1022.034058 1117.106201,1065.980713 1117.749023,1109.923218 
	C1117.962646,1124.526123 1118.690918,1139.139526 1119.733521,1153.708740 
	C1122.161621,1187.641113 1131.646729,1219.759644 1147.317383,1249.779419 
	C1175.551270,1303.865723 1219.247192,1340.430542 1276.694458,1360.559814 
	C1317.458130,1374.843140 1359.315918,1379.192261 1402.308472,1374.448486 
	C1442.871094,1369.973022 1480.952881,1358.578369 1515.787964,1336.974243 
	C1546.323730,1318.036255 1569.070557,1292.107544 1584.686401,1259.937134 
	C1604.487061,1219.145386 1611.486938,1175.298462 1613.453735,1130.608887 
	C1614.751709,1101.116821 1615.470825,1071.571411 1614.491699,1041.993530 
	C1613.664917,1017.020935 1614.321533,991.999207 1614.321411,964.998901 
M2752.321533,1198.944336 
	C2752.767334,1166.336060 2753.639648,1133.726929 2753.568848,1101.119873 
	C2753.428467,1036.513916 2753.007568,971.906128 2752.206787,907.305298 
	C2751.869873,880.103943 2750.954834,852.790527 2745.633789,826.033386 
	C2736.699951,781.104553 2710.386475,750.841370 2666.285156,737.458252 
	C2644.960449,730.987061 2622.696045,728.707031 2600.461182,727.836609 
	C2587.868164,727.343567 2575.050781,727.392334 2562.624023,729.194031 
	C2548.304199,731.270264 2543.238037,738.416382 2542.364990,753.033569 
	C2542.246094,755.026367 2542.276855,757.034668 2542.351807,759.031494 
	C2542.775146,770.309692 2543.662842,781.589417 2543.589844,792.863403 
	C2543.432129,817.141418 2542.356201,841.417297 2542.413330,865.692261 
	C2542.700928,987.624878 2543.226807,1109.556885 2543.681885,1231.489136 
	C2543.819824,1268.414307 2550.273438,1304.235229 2563.847412,1338.554810 
	C2580.910645,1381.696167 2609.769287,1414.411865 2651.687744,1435.108521 
	C2674.228516,1446.237793 2698.166504,1453.047363 2722.792725,1457.272461 
	C2755.110596,1462.817261 2787.354736,1463.699341 2819.439697,1454.687378 
	C2854.933350,1444.717896 2877.477539,1422.700806 2886.020508,1386.510376 
	C2892.425781,1359.375977 2892.320801,1331.785767 2892.135010,1304.231934 
	C2892.045410,1290.923218 2884.883057,1284.430542 2871.284912,1283.828857 
	C2860.972412,1283.372681 2850.625244,1283.635742 2840.293701,1283.685181 
	C2824.942627,1283.758667 2809.786377,1282.180786 2795.038330,1277.857666 
	C2769.593750,1270.399292 2758.818115,1261.385986 2754.564453,1234.673706 
	C2752.798584,1223.584839 2753.009766,1212.181152 2752.321533,1198.944336 
M2537.520996,494.632294 
	C2534.463135,505.425018 2529.605225,516.062988 2528.661621,527.037415 
	C2524.747803,572.564880 2540.493408,610.795593 2575.747559,639.888184 
	C2601.114990,660.821899 2630.663574,668.111145 2663.495117,662.522400 
	C2693.416016,657.429199 2717.573975,642.625732 2737.098145,620.183472 
	C2764.906738,588.218506 2773.557373,551.274597 2761.543213,510.534912 
	C2752.178467,478.779266 2731.294434,455.504150 2703.082764,438.882690 
	C2683.421387,427.298828 2661.961182,422.206482 2639.078613,424.382355 
	C2624.723145,425.747406 2611.157959,430.302338 2598.157959,436.262085 
	C2571.715332,448.384247 2550.503662,466.220825 2537.520996,494.632294 
z"/>
<path fill="#FC0302" opacity="1.000000" stroke="none" 
	d="
M458.719604,364.344177 
	C474.975494,364.342743 490.310852,364.096008 505.635193,364.401245 
	C527.566589,364.838043 549.556885,364.829193 571.400757,366.550476 
	C602.226746,368.979553 631.624268,376.610107 657.175720,395.358887 
	C673.814148,407.567657 686.383789,422.379272 695.440491,441.486267 
	C722.788330,499.182404 751.308289,556.334045 780.091248,613.334412 
	C795.220093,643.294739 811.679749,672.591187 827.905884,701.984619 
	C833.039246,711.283752 839.222778,720.021301 845.225830,728.810913 
	C847.008850,731.421570 849.814819,733.333740 852.380310,735.783875 
	C862.496887,727.165405 868.904297,716.520935 874.992004,705.978149 
	C889.784119,680.360840 904.534607,654.664307 917.889526,628.284668 
	C940.562927,583.498169 962.349487,538.257751 984.125732,493.023712 
	C1000.149780,459.738251 1012.624146,425.035767 1023.651245,389.806763 
	C1024.147461,388.221313 1024.673340,386.643219 1025.245850,385.083832 
	C1031.250977,368.727203 1037.350464,363.899597 1054.742188,363.777679 
	C1078.718628,363.609558 1102.729614,363.468170 1126.669800,364.553375 
	C1146.494873,365.452057 1166.254517,367.353394 1185.067627,375.231781 
	C1220.923340,390.247101 1241.784546,420.815338 1242.398193,459.769409 
	C1242.806274,485.677002 1234.959229,509.439484 1225.359009,532.969177 
	C1205.696045,581.161011 1180.448486,626.452393 1153.255371,670.634766 
	C1126.405884,714.259033 1098.795166,757.429504 1070.792114,800.324890 
	C1043.692627,841.836182 1014.880066,882.190063 982.993469,920.201111 
	C972.181458,933.089844 967.039795,946.827393 967.400513,963.880981 
	C968.217773,1002.523010 967.576355,1041.194458 967.677551,1079.853516 
	C967.821411,1134.827393 968.184631,1189.800781 968.278320,1244.774780 
	C968.315186,1266.421021 968.252197,1288.080566 967.526123,1309.710327 
	C967.038696,1324.229126 965.306030,1338.706177 964.046875,1354.232544 
	C955.188416,1355.439941 947.102905,1357.367310 938.989075,1357.495361 
	C913.032715,1357.905151 887.028931,1358.497925 861.114807,1357.374390 
	C841.020081,1356.503174 820.684570,1355.237183 801.971252,1345.954346 
	C753.479187,1321.899292 723.633606,1284.297485 717.918579,1229.608154 
	C716.161621,1212.795166 715.866638,1195.779297 715.774597,1178.851685 
	C715.506409,1129.529175 715.612183,1080.203979 715.709412,1030.880127 
	C715.754028,1008.233582 715.546082,985.562134 716.552185,962.950806 
	C717.183838,948.753296 712.431396,937.036804 704.734802,925.778259 
	C688.957153,902.699158 673.147705,879.636108 657.764893,856.293945 
	C624.810059,806.287720 593.954712,755.034912 565.758240,702.157776 
	C530.211182,635.496155 497.816010,567.389954 470.885712,496.799438 
	C458.695190,464.845367 448.014099,432.311584 436.901703,399.953766 
	C434.978790,394.354492 433.998077,388.365936 433.161011,382.474915 
	C431.917816,373.725586 436.369537,367.665497 444.999207,365.989075 
	C449.211639,365.170685 453.525940,364.876740 458.719604,364.344177 
z"/>
<path fill="#FC0302" opacity="1.000000" stroke="none" 
	d="
M1999.441162,1270.321777 
	C1991.883179,1253.735352 1987.750488,1237.152222 1987.603760,1219.569946 
	C1987.515259,1208.956909 1986.423828,1198.349854 1986.400635,1187.738892 
	C1986.274536,1130.080688 1986.354736,1072.421997 1986.331909,1014.763489 
	C1986.325439,998.748413 1984.405884,982.988770 1979.991211,967.545471 
	C1970.928589,935.843506 1944.625122,921.033264 1919.514771,922.376404 
	C1894.880005,923.694153 1874.619751,937.229736 1866.248779,963.242554 
	C1863.422974,972.023560 1861.264282,981.259277 1860.532837,990.425415 
	C1858.898438,1010.905334 1856.355835,1031.443970 1859.587769,1052.036743 
	C1859.945312,1054.314819 1859.658081,1056.695190 1859.658081,1059.028198 
	C1859.659424,1140.016724 1859.679321,1221.005371 1859.602905,1301.993896 
	C1859.598877,1306.260498 1858.909180,1310.544922 1858.311646,1314.789062 
	C1856.834717,1325.276001 1851.443726,1329.417603 1841.334595,1329.390259 
	C1814.168091,1329.316895 1786.697388,1330.660645 1760.281128,1322.455078 
	C1719.932617,1309.922119 1695.218994,1282.383179 1686.430420,1241.328247 
	C1683.470581,1227.501831 1682.673706,1213.021729 1682.507935,1198.821533 
	C1681.874023,1144.516846 1681.726074,1090.204468 1681.741089,1035.894897 
	C1681.750610,1001.631592 1684.522827,967.557739 1692.290283,934.104919 
	C1706.987671,870.807312 1741.980347,822.327148 1799.133179,790.735107 
	C1837.379639,769.593872 1878.471802,759.490723 1922.354980,759.468445 
	C1954.653809,759.452026 1985.783325,764.152466 2016.036011,775.518433 
	C2036.690308,783.278259 2054.007324,795.859070 2070.048828,810.572388 
	C2074.684082,814.824036 2079.413086,818.973755 2084.958984,823.940247 
	C2092.791260,817.653992 2100.748779,811.802307 2108.100586,805.269287 
	C2133.217041,782.950867 2163.109375,770.996826 2195.493408,764.293457 
	C2213.496094,760.567017 2231.776855,759.230103 2250.033203,760.465881 
	C2306.661133,764.299072 2357.774170,782.130371 2400.487061,820.947815 
	C2435.576172,852.836853 2455.767334,892.715210 2464.137451,938.855286 
	C2468.229004,961.409180 2469.743408,984.269958 2469.678955,1007.221008 
	C2469.597656,1036.216675 2469.585449,1065.213013 2469.675537,1094.208618 
	C2469.839355,1146.851929 2470.305664,1199.495239 2470.214111,1252.137817 
	C2470.180664,1271.397461 2468.931396,1290.655273 2468.203125,1309.912720 
	C2468.127930,1311.903564 2467.923828,1313.902832 2467.602295,1315.869141 
	C2466.248535,1324.144043 2464.873779,1326.025146 2456.432373,1327.263184 
	C2421.475586,1332.390015 2386.900391,1332.364990 2353.528320,1318.493530 
	C2320.882568,1304.923828 2301.149902,1280.515381 2294.333984,1246.128296 
	C2291.770996,1233.198730 2291.228027,1219.816650 2290.459961,1206.600342 
	C2289.861816,1196.303223 2290.184814,1185.940796 2290.370117,1175.612183 
	C2290.919189,1145.017700 2292.299805,1114.419800 2292.045898,1083.834106 
	C2291.770264,1050.637817 2292.535400,1017.332458 2287.703369,984.322754 
	C2285.221436,967.367554 2281.040527,951.258240 2267.588867,938.906616 
	C2247.446045,920.410889 2216.112549,916.400940 2193.733643,930.388550 
	C2183.252441,936.939575 2176.189209,946.430603 2171.573730,957.904968 
	C2166.660889,970.118713 2164.731201,983.029541 2164.533447,995.875793 
	C2163.949219,1033.829224 2164.158203,1071.798340 2164.364990,1109.759644 
	C2164.647705,1161.698608 2165.518799,1213.636230 2165.481445,1265.573975 
	C2165.469482,1282.110107 2163.461670,1298.652100 2162.144287,1315.173828 
	C2161.860840,1318.727173 2160.615723,1322.203857 2159.883545,1325.409058 
	C2145.273926,1331.076660 2130.591553,1330.563599 2115.994873,1330.280640 
	C2092.884277,1329.832764 2070.332275,1325.763916 2048.946289,1317.012817 
	C2026.902466,1307.992188 2010.580688,1292.310303 1999.441162,1270.321777 
z"/>
<path fill="#FC0302" opacity="1.000000" stroke="none" 
	d="
M1614.321533,965.999084 
	C1614.321533,991.999207 1613.664917,1017.020935 1614.491699,1041.993530 
	C1615.470825,1071.571411 1614.751709,1101.116821 1613.453735,1130.608887 
	C1611.486938,1175.298462 1604.487061,1219.145386 1584.686401,1259.937134 
	C1569.070557,1292.107544 1546.323730,1318.036255 1515.787964,1336.974243 
	C1480.952881,1358.578369 1442.871094,1369.973022 1402.308472,1374.448486 
	C1359.315918,1379.192261 1317.458130,1374.843140 1276.694458,1360.559814 
	C1219.247192,1340.430542 1175.551270,1303.865723 1147.317383,1249.779419 
	C1131.646729,1219.759644 1122.161621,1187.641113 1119.733521,1153.708740 
	C1118.690918,1139.139526 1117.962646,1124.526123 1117.749023,1109.923218 
	C1117.106201,1065.980713 1116.533691,1022.034058 1116.434692,978.087891 
	C1116.374023,951.143738 1117.493042,924.198303 1117.570923,897.252014 
	C1117.611206,883.319031 1116.178223,869.385071 1116.087891,855.447205 
	C1116.023438,845.533142 1116.461060,835.526184 1117.795654,825.713135 
	C1119.890015,810.315552 1125.108887,806.565308 1141.328979,805.848389 
	C1154.944580,805.246582 1168.652832,805.655334 1182.270752,806.455139 
	C1201.925293,807.609314 1220.936768,811.771423 1239.119141,819.774780 
	C1269.110596,832.976135 1285.867188,856.566406 1291.779297,887.836609 
	C1295.216309,906.015381 1297.346191,924.611694 1298.041870,943.096252 
	C1298.955566,967.370911 1298.040527,991.723450 1297.612061,1016.037170 
	C1297.137451,1042.969971 1295.796753,1069.897217 1295.817749,1096.826172 
	C1295.836182,1120.440063 1298.399414,1143.823853 1305.952759,1166.494873 
	C1318.016235,1202.702271 1357.758911,1220.092529 1391.263306,1209.675659 
	C1410.544556,1203.681152 1422.898804,1189.940674 1427.673096,1170.612671 
	C1431.074585,1156.842041 1433.069092,1142.577026 1434.180664,1128.414062 
	C1438.302856,1075.888306 1435.750488,1023.236572 1436.277588,970.639954 
	C1436.447632,953.660034 1435.983398,936.671143 1435.650146,919.689514 
	C1435.317627,902.741882 1434.467773,885.798584 1434.440308,868.852478 
	C1434.417725,854.908264 1435.078979,840.953064 1435.785156,827.020386 
	C1436.438843,814.124634 1443.343018,807.812988 1456.382202,805.564331 
	C1474.071655,802.513550 1491.506226,805.800354 1508.938354,807.131226 
	C1521.713379,808.106506 1534.618530,810.783325 1546.863525,814.622437 
	C1577.466919,824.217896 1596.519165,845.797546 1605.781372,876.042358 
	C1611.248169,893.893616 1613.421021,912.364807 1613.671509,931.046814 
	C1613.823364,942.365051 1614.100586,953.681580 1614.321533,965.999084 
z"/>
<path fill="#FC0302" opacity="1.000000" stroke="none" 
	d="
M2752.321777,1199.932495 
	C2753.009766,1212.181152 2752.798584,1223.584839 2754.564453,1234.673706 
	C2758.818115,1261.385986 2769.593750,1270.399292 2795.038330,1277.857666 
	C2809.786377,1282.180786 2824.942627,1283.758667 2840.293701,1283.685181 
	C2850.625244,1283.635742 2860.972412,1283.372681 2871.284912,1283.828857 
	C2884.883057,1284.430542 2892.045410,1290.923218 2892.135010,1304.231934 
	C2892.320801,1331.785767 2892.425781,1359.375977 2886.020508,1386.510376 
	C2877.477539,1422.700806 2854.933350,1444.717896 2819.439697,1454.687378 
	C2787.354736,1463.699341 2755.110596,1462.817261 2722.792725,1457.272461 
	C2698.166504,1453.047363 2674.228516,1446.237793 2651.687744,1435.108521 
	C2609.769287,1414.411865 2580.910645,1381.696167 2563.847412,1338.554810 
	C2550.273438,1304.235229 2543.819824,1268.414307 2543.681885,1231.489136 
	C2543.226807,1109.556885 2542.700928,987.624878 2542.413330,865.692261 
	C2542.356201,841.417297 2543.432129,817.141418 2543.589844,792.863403 
	C2543.662842,781.589417 2542.775146,770.309692 2542.351807,759.031494 
	C2542.276855,757.034668 2542.246094,755.026367 2542.364990,753.033569 
	C2543.238037,738.416382 2548.304199,731.270264 2562.624023,729.194031 
	C2575.050781,727.392334 2587.868164,727.343567 2600.461182,727.836609 
	C2622.696045,728.707031 2644.960449,730.987061 2666.285156,737.458252 
	C2710.386475,750.841370 2736.699951,781.104553 2745.633789,826.033386 
	C2750.954834,852.790527 2751.869873,880.103943 2752.206787,907.305298 
	C2753.007568,971.906128 2753.428467,1036.513916 2753.568848,1101.119873 
	C2753.639648,1133.726929 2752.767334,1166.336060 2752.321777,1199.932495 
z"/>
<path fill="#FC0302" opacity="1.000000" stroke="none" 
	d="
M2537.796387,493.925537 
	C2550.503662,466.220825 2571.715332,448.384247 2598.157959,436.262085 
	C2611.157959,430.302338 2624.723145,425.747406 2639.078613,424.382355 
	C2661.961182,422.206482 2683.421387,427.298828 2703.082764,438.882690 
	C2731.294434,455.504150 2752.178467,478.779266 2761.543213,510.534912 
	C2773.557373,551.274597 2764.906738,588.218506 2737.098145,620.183472 
	C2717.573975,642.625732 2693.416016,657.429199 2663.495117,662.522400 
	C2630.663574,668.111145 2601.114990,660.821899 2575.747559,639.888184 
	C2540.493408,610.795593 2524.747803,572.564880 2528.661621,527.037415 
	C2529.605225,516.062988 2534.463135,505.425018 2537.796387,493.925537 
z"/>
</svg>