<?xml version="1.0"?><svg version="1.2" baseProfile="tiny-ps" viewBox="0 0 300 300" xmlns="http://www.w3.org/2000/svg" xmlns:xlink="http://www.w3.org/1999/xlink"><title>YumiMilling</title><g><g fill="#fefdfa" transform="matrix(.1 0 0 -.1 0 300)"><path d="M0 1500V0h3000v3000H0V1500z"/></g><g fill="#f6e5c6" transform="matrix(.1 0 0 -.1 0 300)"><path d="M465 2406c-27-7-76-24-108-39l-58-27-65-64-64-64-30-63c-16-34-34-85-40-113l-10-51 2-560 3-560 1170-3 1170-3 70 12 70 11 62 28 62 28 52 49c60 56 96 106 130 183l24 55 3 598 3 597-1198-1-1198-1-50-12zm2365-87 11-20-4-502-3-502-17-47c-25-73-62-131-122-187l-55-52-67-32-68-32H175v1060l36 75 36 75 53 52 52 53 62 30c33 17 81 34 106 39l45 9 1127 1 1127 1 11-21zm-2332-58c-73-24-116-51-168-107l-42-45-26-57-27-57-3-497-3-498h2228l56 19c103 34 183 105 229 207l23 49 3 503 3 502-1108-1H555l-57-18zm152-157 35-19 58-118 58-117h29l44 88c24 48 49 105 56 127s18 46 24 54l10 13 75-4 75-5 28-32 28-31v-81l-30-59c-16-32-43-80-60-106l-29-47 5-8c3-5 21-9 40-9h35l30-16 31-15 14-34 14-34v-217l12-12c7-7 20-12 29-12h17l6 16c3 9 6 85 6 170v154h115l32-19 31-20 14-48 14-48 20 45 21 45 36 32 36 32 38 10c21 6 61 11 88 11l50-1 40-18 40-18 40 18 40 19h100l51-24 51-24 22-30c12-17 27-45 32-62 6-16 15-30 20-30h8l3 98 3 97 27 3c16 2 28 5 28 7 0 1-16 19-35 38l-35 35v93l15 28 14 28 35 17c43 20 69 20 113-1l36-17 19-44 20-45-11-38-11-38-31-25c-17-14-37-26-45-26-21 0-17-18 6-25 10-3 31-20 45-36l25-31v-178c0-98 3-185 6-194l6-16h108v-122l-17-28c-9-16-27-33-40-39l-24-11h-104l-40 19c-22 10-51 30-64 44l-23 26-19 53-18 53v-27c-1-14-4-33-7-42l-6-16h-100l-32 15c-17 8-38 25-46 37l-14 23-6 130-5 130-19 3-19 4-9-14-9-13 2-140v-159l-1-18-65 4-66 4-25 25-25 26-9 39c-5 21-10 83-10 137v98l-16 6-15 6-12-12-12-12 3-141c1-78 0-150-4-160l-5-18h-100l-28 14c-39 21-51 38-60 87l-8 44-25-56-26-56-33-26c-40-29-97-47-155-47h-40l-47 16-46 15-40 44-39 43-11 38-11 39v264l-9 5-9 6-31-42-31-42v-363l-38-6-37-7-52 9-52 8-26 17-27 18-14 33-14 34v247l-51 79c-89 140-178 333-195 420l-7 38 95-5 94-4 34-20zm-194-2-6-10 26-74c35-97 111-247 168-332l46-69v-232l10-37 11-37 29-25 30-25 54-6 54-7 21 7 21 6v351l29 37c47 60 142 211 172 276l29 60v32c0 45-9 62-41 78l-28 15H968l-16-42c-23-59-107-229-125-252l-15-20-68 134-69 134-28 20-28 21-78 3-79 4-6-10zm1832-58c-36-19-48-43-48-93v-41l29-32 29-33h81l30 29 31 30 6 32 6 32-16 31-16 31-30 15c-36 19-67 19-102-1zm-33-257c-4-8-5-124-3-258l3-244 23-37 23-37 43-20 42-21h115l25 25 25 25-3 53-3 52-45 5-45 5-13 25-13 25 6 77 6 77-7 97-7 97-27 30-27 30-56 5-57 4-5-15zm-574-18-44-8-32-22c-17-12-42-38-56-58l-24-36-3-153-3-152 30-31 31-30 47 3 48 3 3 154 3 155 10 13 11 13h23c12 0 27-6 33-12l10-13 3-128 4-129 33-29 32-29h88l6 23c3 12 6 81 6 154 0 72 3 138 6 147l6 16h54l12-12 12-12v-227l14-34 14-33 20-11 21-11h88l6 44c6 44 0 253-9 314l-5 32-30 35-30 34-44 17-44 17-56-5-56-5-27-20-28-21-25 19c-13 10-37 21-54 24-16 4-37 8-45 10-8 1-35-1-59-6zm-640-46-9-18 3-150 2-150 12-30c7-16 23-44 36-61l24-31 45-22 46-21h115l41 19 41 19 26 33 25 34 12 46 12 46-4 123-3 122-28 23-27 24-35 7c-19 3-42 4-50 0l-15-5v-286l-13-25-12-25-27-3-26-3-16 23-16 22v221l-13 25-12 25-35 17c-19 10-47 18-62 18h-27l-10-17zM253 810l-23-9-20-33c-11-18-20-41-20-51 0-27 28-75 51-88l21-11h86l21 12 21 11v77l-15 6c-8 3-22 3-30 0l-15-6v-58h-40l-20 20-20 20v19c0 42 48 63 90 41l19-10 16 16 16 17-14 15-15 14-43 4-44 4-22-10zm205-7c-31-19-48-52-48-93v-28l25-30 25-30 32-4 32-5 33 9 32 9 21 26 20 26v28c0 15-5 39-11 53l-12 25-32 16c-18 8-46 15-62 15l-28-1-27-16zm100-45 12-12v-55l-16-15c-20-20-48-20-68 0l-16 15v55l12 12c15 15 61 15 76 0zm152 55c-28-11-49-35-60-69l-11-33 15-33c9-18 26-39 37-46l21-14h86l26 17 25 17 11 33 11 33-14 34c-8 18-21 39-30 47l-17 13-43 4c-23 2-49 1-57-3zm82-60 18-16v-47l-25-16-26-17-24 11-23 11-7 21-7 21 16 24 16 25h43l19-17zm105 60c-4-3-7-48-7-100v-93h141l24 16 24 16 11 33 11 33-15 37-15 36-35 14-35 15h-49c-27 0-52-3-55-7zm125-60 18-16v-45l-13-11c-8-6-28-14-45-17l-32-6v112h53l19-17zm185 60c-4-3-7-49-7-100v-94l28 3 27 3 5 44 5 45 35-47 35-46 28-1h28l-3 98-3 97h-50l-5-49-5-50-27 36c-50 65-72 80-91 61zm223-76v-84l19-17 20-18 47-1h47l24 27 24 28-3 72-3 71h-50l-3-72-3-72-20-6-20-7-14 12-14 12-3 66-3 67-22 3-23 3v-84zm197 77c-4-4-7-16-7-26v-18h60V620h60v150h61l-3 23-3 22-80 3-81 3-7-7zm193-93V620h50v50h37l13-25 13-25h68l-21 30-21 30 15 16 16 15v66l-21 19-20 18-65 4-64 4V721zm113 37c2-7 2-19-1-25l-4-13h-58v50h58l5-12zm94 56c-4-4-7-49-7-101v-93h61l-3 98-3 97-20 3c-12 2-24 0-28-4zm73-19v-25h60V620h50v150h60v50h-170v-25zm197 19c-4-4-7-49-7-101v-93h61l-3 98-3 97-20 3c-12 2-24 0-28-4zm137-3c-12-5-29-20-38-33l-16-22v-83l26-26 26-26 26-3c15-2 39-1 54 1l27 3 25 24 24 24 5 28 5 27-12 30c-7 16-20 36-29 44l-17 13-43 4-42 4-21-9zm90-57 16-15v-49l-26-17-26-17-27 15-26 15-3 23-4 23 18 19 17 19h46l15-16zm103 59c-4-3-7-48-7-100v-93h60v48l1 47 40-47 41-48h49l-3 98-3 97h-50l-3-48-3-48-41 50-42 51h-16c-9 0-20-3-23-7z"/></g><g fill="#f2cb8a" transform="matrix(.1 0 0 -.1 0 300)"><path d="M428 2391c-78-25-138-62-197-121l-50-50-35-72-36-73-10-70-10-70 2-530 3-530h2450l58 23 58 24 62 46 61 47 38 57c22 32 49 83 61 115l22 58 3 583 3 582-1213-1H485l-57-18zm2406-67c3-9 6-237 6-507v-492l-14-50c-7-27-24-72-37-100l-23-50-58-58-57-58-64-30-64-30-59-9-59-10H191l-15 16-16 15v934l10 63 9 63 30 65 30 64 53 56 52 55 71 34c38 18 81 35 95 38 14 2 541 5 1171 6l1147 1 6-16zm-2353-74c-94-34-164-100-214-200l-32-65v-980h2240l57 23 58 23 55 50 55 51 32 66 33 67 3 492 3 493H1653l-1118-1-54-19zm169-138 35-18 60-120c33-65 64-119 69-119 13 0 82 130 109 206l23 64 74 3 75 2 25-13 25-12 18-35 18-35-6-34c-7-36-58-143-94-196-27-39-26-45 4-45 13 0 43-7 65-16l41-16 14-29 15-28v-210l10-26 10-26 18 3 17 3 5 170 5 170 40 3 40 4 37-11 37-11 25-31 26-31v-53l26 45c34 60 52 78 99 102l40 21 65 1 66 1 40-18 41-19 30 15c16 9 44 18 63 22l35 6 50-11 50-11 32-22c35-24 82-91 85-122 1-11 4 25 7 80l6 100 28 3c32 4 35 17 7 32-11 6-27 24-35 40l-15 29v66l20 32c10 18 31 39 45 49l25 17 51-5 51-5 30-30 30-31 5-45 5-46-21-35-22-35-29-13c-35-15-38-24-10-33 11-3 30-21 42-38l23-32 3-188 4-187 21-5c12-2 38-6 57-7l35-3 3-50 2-50-17-35-18-35-35-18-35-18-53 6-53 5-37 19c-51 26-72 52-93 113l-18 53-3-40-3-40-25-4c-14-1-48 2-76 8l-51 12-24 25-24 26-5 133c-3 73-8 137-12 140l-7 7-16-5-15-6v-330l-33-6-34-7-39 11c-21 6-49 17-61 26l-22 16-11 37-10 37v216l-16 6-16 6-9-14-9-14v-313l-16-6c-23-9-54-7-95 4l-37 10-26 26-26 27v23c0 12-4 25-9 29l-9 5-11-32c-15-44-55-86-105-109l-41-19h-136l-32 13c-48 21-95 64-119 111l-21 41-6 150-6 150-32-45-33-44v-368l-84 3-85 4-27 21c-15 11-37 33-48 48l-21 27-5 142-5 142-46 70c-92 140-189 356-189 420v25h185l35-18zm-186-16-6-17 22-62c32-89 104-229 166-325l54-83v-261l16-28c9-15 29-35 44-44l28-16h120l6 31c3 17 6 100 6 185v153l11 7c19 11 150 216 185 289 36 73 41 103 23 137l-11 20-33 14-34 14h-38c-49 0-56-5-77-65-20-54-89-195-114-233l-15-23-13 19c-7 11-40 74-74 140l-60 121-32 17-33 17-67 5-68 5-6-17zm1840-50c-17-8-39-24-48-37l-16-23v-61l19-32 20-31 30-7 31-7 30 7 30 7 20 25 20 26v77l-27 29-28 30-25 5-25 6-31-14zm-47-253-7-6v-454l15-44c20-55 40-77 90-100l40-19h97l29 29 29 29v89l-50 7-50 7-10 19-10 19v346l-20 32-19 32-38 10c-43 12-87 14-96 4zm-622-42c-51-24-81-56-100-110l-15-44v-238l15-29 15-28 35-12c19-6 45-10 57-8l23 3 5 158 5 159 19 14c25 18 37 18 61 0l19-14 6-137 5-137 23-19c26-20 84-34 107-25l15 5v299l18 22 19 23 26-7 26-6 10-38 11-37v-204l24-27 23-28h49l49-1 3 170 2 171-23 44-23 45-55 28-54 29-53-4-53-5-31-23-31-23-16 12c-9 6-30 18-48 26l-32 15h-96l-40-19zm-591-36c-3-8-4-85-2-172l3-158 20-34c11-19 36-47 55-63l36-28 57-12 56-12 55 17 54 17 31 32 31 32 12 41 11 40 1 105c1 58-3 122-7 142l-8 38-30 16-30 15-37-3-37-3-5-155-5-155-8-12-8-13h-27c-35 0-49 10-61 43l-11 28 2 97 2 97-8 23-7 22-29 15-29 15h-72l-5-15zM256 805c-16-8-35-23-42-33l-13-17-1-38v-39l29-29 29-29h42c23 0 50 5 61 10l19 11v79h-40v-60h-59l-16 16-16 17 3 31 3 31 24 11 23 12 30-10 30-10 11 11 11 11-15 15-15 16-35 5-34 5-29-16zm217 0-32-13-16-33-17-32 11-39 12-38 29-15c55-29 126-14 150 31 16 28 15 75 0 104l-12 22-33 14c-42 17-51 17-92-1zm94-61 17-26-15-27-15-26-31-3-32-3-16 25-17 25 8 23c9 29 22 38 56 38h28l17-26zm147 67c-12-5-31-22-43-37l-21-27v-69l29-29 29-29h94l29 29 29 29v72l-27 30-28 31-35 4-35 5-21-9zm84-54 12-9v-57l-16-15-15-16h-48l-16 16-16 17 3 31 3 31 24 11 24 12 16-5c9-4 22-10 29-16zm1646 53c-12-4-31-21-43-36l-21-27v-69l29-29 29-29h94l29 29 29 29v31c0 16-5 41-11 55l-12 25-32 16c-36 17-59 18-91 5zm84-53 12-9v-57l-16-15-15-16h-48l-16 16-16 17 3 31 3 31 24 11 24 12 16-5c9-4 22-10 29-16zM900 714v-96l71 4 71 4 24 27 24 28v37l-1 37-12 16c-7 9-22 21-34 27l-22 12H900v-96zm128 44 12-12v-55l-16-15-15-16h-59v110h66l12-12zm172-43v-95h50v100h8c4-1 24-23 45-50l38-50h39v190h-40v-43c0-24-3-47-6-50l-7-6-39 49-40 50h-48v-95zm230 26v-68l21-27 20-26h89l20 20 20 20v150h-40V699l-10-20-11-19h-49l-10 26c-6 14-10 48-10 75v49h-40v-69zm200 49v-20h60V619l23 3 22 3 3 73 3 72h49v40h-160v-20zm190-75v-95h50v50h40l16-25 16-25h49l-17 29-17 29 17 23c9 13 16 34 16 46v23l-20 20-20 20h-130v-95zm118 31 4-19-14-8c-7-5-23-9-35-9h-23v61l32-3 33-3 3-19zm92-31v-95h40v190h-40v-95zm70 75v-20h60V620h50v150h60v40h-170v-20zm200-75v-95h40v190h-40v-95zm330 0v-95h40v100h8c4 0 25-22 46-50l38-50h38v190h-40v-52l-1-53-47 53-47 52h-35v-95z"/></g><g fill="#ffce31" transform="matrix(.1 0 0 -.1 0 300)"><path d="M470 2399c-61-12-155-60-209-106l-44-37-39-60-38-60-20-64-20-64V870h2367l54 10c30 6 81 23 114 39l60 28 49 44 50 44 37 57 37 57 18 68 19 68v1120l-1195 1-1195 2-45-9zm2359-63 12-14-3-529-3-529-37-75-37-74-51-51-51-51-50-28c-28-15-74-34-103-41l-51-14H182l-11 14-12 14 3 524 3 523 37 78 38 78 53 52 53 52 52 28 52 28 63 14 62 13 1121 1 1122 1 11-14zm-2299-75c-54-11-123-47-174-92l-45-40-33-67-33-67-3-492-3-493 1128 2 1128 3 59 29 60 29 44 44 44 44 31 67 32 67 3 488 3 487-1103-1-1103-1-35-7zm85-132 43-11 24-25c13-13 46-70 73-126 28-56 55-103 61-104l10-3 46 97c25 54 52 116 60 138l14 40 59 3 59 3 43-16 43-17 15-28 15-29v-66l-29-61c-15-33-40-79-55-102-14-23-26-46-26-52v-10h65l32-20c17-10 37-29 44-42l13-23 1-115 1-115 8-13c10-17 33-15 40 4 3 9 6 85 6 170v154h127l34-23 34-22 10-33c11-38 21-41 29-9 7 28 60 83 100 104l31 16 70 4 70 4 38-20 38-19 42 19 42 19h100l50-24 51-23 27-32c15-18 30-45 35-59l7-27 5 95 5 95 23 3 23 3-31 35-30 35v94l20 33 20 33 35 15c45 18 69 18 112-3l35-16 19-31 19-31v-94l-31-36c-17-19-37-35-45-35-21 0-18-6 24-44l37-34 5-194 5-193 55-5 55-5 3-57 3-58-16-33-15-33-29-17-29-17h-103l-37 16c-20 8-52 29-69 46l-33 32-12 35-12 36-6-25-6-25-29-3c-16-2-48-1-72 3l-43 6-30 30-30 31v244l-13 18-13 18-12-14-11-14-3-160-3-159-68 1-68 1-32 31-32 32-3 113c-1 61-5 122-7 135l-5 22h-30l-2-32c-1-18 0-85 1-149l3-116-11-21-12-22h-90l-32 14c-38 16-61 40-75 81l-10 30-1-16c-1-9-14-35-31-57l-30-41-38-20-39-20-51-7-50-6-51 12-51 12-38 28-39 28-27 53-26 53v276h-8c-4 0-17-15-27-32l-20-33-5-185-5-185H761l-28 21c-15 11-36 36-45 55l-18 34v248l-49 76c-66 104-143 259-176 358l-28 81 6 16 6 16h71c39 0 91-5 115-11zm-155-31c0-3 11-36 24-74 30-88 93-215 162-325l54-86v-248l18-35 17-35 35-17 35-18h105v353l49 66c63 87 113 167 151 241l31 61 1 36 1 36-27 24-28 24-60-3-60-3-27-70c-15-39-47-107-71-153l-44-82-11 3c-5 1-39 60-75 130s-76 137-88 150l-23 22-84 4c-47 1-85 1-85-1zm1829-63-26-14-13-30-12-30 7-30 6-30 32-27 31-26 35 6 36 5 28 31 27 30v26c0 32-16 64-44 86l-21 18-30-1c-16 0-42-6-56-14zm-30-247c0-2-3-73-6-158l-5-155 7-92 7-93 21-31c12-18 34-41 48-52l27-19 43-9 44-8 37 10 38 10 10 20c6 11 12 39 13 62l2 42-42 5c-23 4-48 12-56 19l-15 12-4 190-3 191-33 29-32 29h-50c-28 0-50-1-51-2zm-581-28c-20-4-53-18-73-31l-35-24-23-45-22-45-3-118-4-118 12-30c7-16 22-36 34-44l20-15h86v296l16 22 15 22h46l16-18 17-19v-245l29-29 29-29h92v301l10 20 11 19h57l13-16 14-17 5-134 5-135 24-19 23-19h98v295l-10 39c-11 51-38 86-86 113l-39 23h-120l-34-21-34-21-36 20c-43 23-102 32-153 22zm-634-56c-4-14-4-91-2-170l5-144 29-47 29-46 44-24 44-23h122l40 19c50 23 70 45 90 100l15 44v256l-23 26-22 26-50 2-50 2-3-156-2-156-21-18-20-19-27 10-27 9-12 25-13 25v216l-11 21-11 20-33 14c-19 8-46 14-59 14h-26l-6-26zM276 809c-39-11-64-35-71-71l-7-29 12-30 13-30 28-14c33-17 67-19 103-5l26 10v80h-40v-58l-15-6-15-5-25 9-25 10-12 24-11 25 17 26c10 14 24 29 33 32l16 6 28-10 28-11 11 13 11 13-11 7c-6 4-23 10-38 14l-27 8-29-8zm217 4c-12-2-33-16-47-30l-26-26v-79l29-29 29-29h84l29 29 29 29v79l-26 27c-15 14-32 26-40 26-7 0-18 2-26 4-7 2-23 1-35-1zm67-53 20-20v-22c0-29-9-42-37-57l-23-12-22 12c-29 15-38 28-38 57v22l20 20 20 20h40l20-20zm162 48-33-9-19-32c-24-38-25-59-6-96l15-27 26-12c35-16 70-15 104 3l28 14 13 30 12 30-7 29c-7 36-32 60-71 71l-29 8-33-9zm70-45 18-16v-65l-15-12c-8-7-27-12-41-12h-26l-15 15-15 15v53l17 19 18 20h20c11 0 29-7 39-17zm1664 46c-39-11-64-35-71-71l-7-29 12-30 13-30 28-14c15-8 40-15 54-15s39 7 54 15l28 14 13 30 12 30-7 29c-7 36-32 60-71 71l-29 8-29-8zm66-46 18-16v-67l-24-15-23-16-27 11-27 10-8 22c-9 26-5 45 17 71l15 17h20c11 0 29-7 39-17zM900 715v-95h49c26 0 62 5 80 11l32 11 15 30 16 30-6 34-7 33-26 21-26 20H900v-95zm125 40c29-28 31-42 9-73l-15-22h-79v53c0 61 4 67 37 67h24l24-25zm185-40v-95h39l3 56 3 55 45-55 45-55 18-1h17v190h-39l-3-57-3-58-45 58-45 57h-35v-95zm220 25v-71l25-24 24-25h72l24 25 25 24v141h-40V681l-16-15c-20-21-30-20-54 4l-20 20v120h-40v-70zm200 56v-15l28-3 27-3 3-77 3-78h38l3 78 3 77 28 3 27 3v29h-160v-14zm192-78 3-93 23-3 22-3v61h39l18-30 17-30h47l-21 31-22 30 15 12c9 7 19 24 22 39l7 27-26 25-25 26h-122l3-92zm106 53 14-8-4-24-3-24-32-3-33-3v71h23c12 0 28-4 35-9zm102-56v-95h40v190h-40v-95zm70 80v-15h60V620h50v160h60v30h-170v-15zm200-80v-95h40v190h-40v-95zm330 0v-95h40v115l53-58c28-32 58-57 65-57h12v190h-39l-3-55-3-55-44 55-44 55h-37v-95z"/></g><g fill="#ec363a" transform="matrix(.1 0 0 -.1 0 300)"><path d="M460 2098c0-3 11-36 24-74 30-88 93-215 162-325l54-86v-248l18-35 17-35 35-17 35-18h105v353l49 66c63 87 113 167 151 241l31 61 1 36 1 36-27 24-28 24-60-3-60-3-27-70c-15-39-47-107-71-153l-44-82-11 3c-5 1-39 60-75 130s-76 137-88 150l-23 22-84 4c-47 1-85 1-85-1zm1829-63-26-14-13-30-12-30 7-30 6-30 32-27 31-26 35 6 36 5 28 31 27 30v26c0 32-16 64-44 86l-21 18-30-1c-16 0-42-6-56-14zm-30-247c0-2-3-73-6-158l-5-155 7-92 7-93 21-31c12-18 34-41 48-52l27-19 43-9 44-8 37 10 38 10 10 20c6 11 12 39 13 62l2 42-42 5c-23 4-48 12-56 19l-15 12-4 190-3 191-33 29-32 29h-50c-28 0-50-1-51-2zm-581-28c-20-4-53-18-73-31l-35-24-23-45-22-45-3-118-4-118 12-30c7-16 22-36 34-44l20-15h86v296l16 22 15 22h46l16-18 17-19v-245l29-29 29-29h92v301l10 20 11 19h57l13-16 14-17 5-134 5-135 24-19 23-19h98v295l-10 39c-11 51-38 86-86 113l-39 23h-120l-34-21-34-21-36 20c-43 23-102 32-153 22zm-634-56c-4-14-4-91-2-170l5-144 29-47 29-46 44-24 44-23h122l40 19c50 23 70 45 90 100l15 44v256l-23 26-22 26-50 2-50 2-3-156-2-156-21-18-20-19-27 10-27 9-12 25-13 25v216l-11 21-11 20-33 14c-19 8-46 14-59 14h-26l-6-26zM276 809c-39-11-64-35-71-71l-7-29 12-30 13-30 28-14c33-17 67-19 103-5l26 10v80h-40v-58l-15-6-15-5-25 9-25 10-12 24-11 25 17 26c10 14 24 29 33 32l16 6 28-10 28-11 11 13 11 13-11 7c-6 4-23 10-38 14l-27 8-29-8zm217 4c-12-2-33-16-47-30l-26-26v-79l29-29 29-29h84l29 29 29 29v79l-26 27c-15 14-32 26-40 26-7 0-18 2-26 4-7 2-23 1-35-1zm67-53 20-20v-22c0-29-9-42-37-57l-23-12-22 12c-29 15-38 28-38 57v22l20 20 20 20h40l20-20zm162 48-33-9-19-32c-24-38-25-59-6-96l15-27 26-12c35-16 70-15 104 3l28 14 13 30 12 30-7 29c-7 36-32 60-71 71l-29 8-33-9zm70-45 18-16v-65l-15-12c-8-7-27-12-41-12h-26l-15 15-15 15v53l17 19 18 20h20c11 0 29-7 39-17zm1664 46c-39-11-64-35-71-71l-7-29 12-30 13-30 28-14c15-8 40-15 54-15s39 7 54 15l28 14 13 30 12 30-7 29c-7 36-32 60-71 71l-29 8-29-8zm66-46 18-16v-67l-24-15-23-16-27 11-27 10-8 22c-9 26-5 45 17 71l15 17h20c11 0 29-7 39-17zM900 715v-95h49c26 0 62 5 80 11l32 11 15 30 16 30-6 34-7 33-26 21-26 20H900v-95zm125 40c29-28 31-42 9-73l-15-22h-79v53c0 61 4 67 37 67h24l24-25zm185-40v-95h39l3 56 3 55 45-55 45-55 18-1h17v190h-39l-3-57-3-58-45 58-45 57h-35v-95zm220 25v-71l25-24 24-25h72l24 25 25 24v141h-40V681l-16-15c-20-21-30-20-54 4l-20 20v120h-40v-70zm200 56v-15l28-3 27-3 3-77 3-78h38l3 78 3 77 28 3 27 3v29h-160v-14zm192-78 3-93 23-3 22-3v61h39l18-30 17-30h47l-21 31-22 30 15 12c9 7 19 24 22 39l7 27-26 25-25 26h-122l3-92zm106 53 14-8-4-24-3-24-32-3-33-3v71h23c12 0 28-4 35-9zm102-56v-95h40v190h-40v-95zm70 80v-15h60V620h50v160h60v30h-170v-15zm200-80v-95h40v190h-40v-95zm330 0v-95h40v115l53-58c28-32 58-57 65-57h12v190h-39l-3-55-3-55-44 55-44 55h-37v-95z"/></g><g fill="#735348" transform="matrix(.1 0 0 -.1 0 300)"><path d="M276 809c-39-11-64-35-71-71l-7-29 12-30 13-30 28-14c33-17 67-19 103-5l26 10v80h-40v-58l-15-6-15-5-25 9-25 10-12 24-11 25 17 26c10 14 24 29 33 32l16 6 28-10 28-11 11 13 11 13-11 7c-6 4-23 10-38 14l-27 8-29-8zm217 4c-12-2-33-16-47-30l-26-26v-79l29-29 29-29h84l29 29 29 29v79l-26 27c-15 14-32 26-40 26-7 0-18 2-26 4-7 2-23 1-35-1zm67-53 20-20v-22c0-29-9-42-37-57l-23-12-22 12c-29 15-38 28-38 57v22l20 20 20 20h40l20-20zm162 48-33-9-19-32c-24-38-25-59-6-96l15-27 26-12c35-16 70-15 104 3l28 14 13 30 12 30-7 29c-7 36-32 60-71 71l-29 8-33-9zm70-45 18-16v-65l-15-12c-8-7-27-12-41-12h-26l-15 15-15 15v53l17 19 18 20h20c11 0 29-7 39-17zm1664 46c-39-11-64-35-71-71l-7-29 12-30 13-30 28-14c15-8 40-15 54-15s39 7 54 15l28 14 13 30 12 30-7 29c-7 36-32 60-71 71l-29 8-29-8zm66-46 18-16v-67l-24-15-23-16-27 11-27 10-8 22c-9 26-5 45 17 71l15 17h20c11 0 29-7 39-17zM900 715v-95h49c26 0 62 5 80 11l32 11 15 30 16 30-6 34-7 33-26 21-26 20H900v-95zm125 40c29-28 31-42 9-73l-15-22h-79v53c0 61 4 67 37 67h24l24-25zm185-40v-95h39l3 56 3 55 45-55 45-55 18-1h17v190h-39l-3-57-3-58-45 58-45 57h-35v-95zm220 25v-71l25-24 24-25h72l24 25 25 24v141h-40V681l-16-15c-20-21-30-20-54 4l-20 20v120h-40v-70zm200 56v-15l28-3 27-3 3-77 3-78h38l3 78 3 77 28 3 27 3v29h-160v-14zm192-78 3-93 23-3 22-3v61h39l18-30 17-30h47l-21 31-22 30 15 12c9 7 19 24 22 39l7 27-26 25-25 26h-122l3-92zm106 53 14-8-4-24-3-24-32-3-33-3v71h23c12 0 28-4 35-9zm102-56v-95h40v190h-40v-95zm70 80v-15h60V620h50v160h60v30h-170v-15zm200-80v-95h40v190h-40v-95zm330 0v-95h40v115l53-58c28-32 58-57 65-57h12v190h-39l-3-55-3-55-44 55-44 55h-37v-95z"/></g></g></svg>