<?xml version="1.0"?><svg version="1.2" baseProfile="tiny-ps" viewBox="0 0 300 300" xmlns="http://www.w3.org/2000/svg" xmlns:xlink="http://www.w3.org/1999/xlink"><title>YumiMilling</title><g><g fill="#fffefd" transform="matrix(.1 0 0 -.1 0 300)"><path d="M0 1500V0h3000v3000H0V1500z"/></g><g fill="#feedca" transform="matrix(.1 0 0 -.1 0 300)"><path d="M575 2196c-28-7-73-23-100-36l-50-24-56-55-55-56-27-55c-15-30-31-80-37-110l-10-56 2-489 3-490 1035-3 1035-2 70 10 70 11 63 29 63 30 52 53 52 53 27 54 26 55 11 60 12 60-3 485-3 485-1065 2-1065 1-50-12zm2103-64 13-9-3-464-3-464-23-58-24-58-55-59-55-60-66-32-67-33H315v940l24 60 24 60 61 60 61 61 49 23c27 12 68 26 90 31l41 8 1000 1 1000 1 13-8zm-2095-73-52-20-52-47-52-47-28-60-29-60V940h1927l54 10c29 6 73 20 96 31l43 21 44 43 43 44 24 48 24 48 3 448 3 447-998-1H635l-52-20zm154-125 34-17 55-108c30-60 58-109 63-109 11 0 66 104 95 182l24 63 61 3 60 3 30-16 30-15 12-41 13-41-57-109-56-109h25c13 0 40-7 60-15l35-14 14-35 15-35v-90c0-49 3-96 6-105l6-16h36l6 16c3 9 6 79 6 156v140l55-4 56-5 27-20 27-20 10-42 11-42 12 35c7 19 22 46 34 61l21 28 41 18 41 19h105l39-16 39-15 31 15 30 16h96l40-19c50-23 83-58 100-108l13-38 6 15c3 8 7 51 8 95l3 80 27 3 26 3-35 33-36 32v83l17 27 18 26 35 14 34 15 22-6c86-24 120-92 82-165l-15-30-31-16-31-15 39-34 38-33 5-173 5-174 50-5 50-5v-52l-1-51-12-24c-7-13-23-30-35-37l-21-14-52 1h-52l-41 21-41 21-16 25c-9 13-22 44-29 67l-14 43v-37c-1-20-5-39-10-42-4-3-32-3-61 1l-52 6-29 24-29 25v101c0 56-3 112-6 125l-6 22h-37l-6-21c-4-11-5-76-3-145l3-125-15-10-15-10-39 6c-50 7-72 20-94 52l-17 27-1 91c-1 49-2 100-3 113l-1 22h-37l-7-37c-3-21-3-85 0-143l7-105-16-13-16-13-45 6-46 7-25 20-25 19-11 42-12 42-14-42-14-42-35-30-34-30-42-12-43-11-46 4-47 5-38 20-39 20-30 42-30 43-5 141c-3 78-8 142-12 142-3 0-17-13-30-30l-23-29-5-171-5-170-73 1-72 2-25 16c-14 9-33 28-42 43l-18 27-4 120-3 120-60 100c-69 113-108 198-138 292-11 36-20 68-20 70s36 4 81 4h81l35-16zm-167-17c0-47 90-242 165-359l43-66 4-126 3-126 33-32 32-33h125l3 159 3 159 28 36c81 103 181 285 181 329v23l-25 24-24 25h-118l-18-47c-26-70-106-223-116-223-5 0-36 54-69 120l-60 119-29 16-30 15H570v-13zm1650-34c-25-10-52-37-61-62l-10-24 11-33 12-34 21-15 21-15h68l29 29 29 29v71l-22 25-23 26-30 5c-16 2-37 2-45-2zm-44-232c-4-6-8-104-8-219l-2-208 20-39 19-40 32-21 32-21 42-7 41-7 37 18 36 18 9 42 9 42-6 15-6 16h-77l-12 12-12 12v315l-11 24c-14 31-40 46-93 53l-43 6-7-11zm-564-37c-18-9-43-30-57-45l-24-29-11-56-12-56 4-88 3-88 23-25 23-25 36-5 37-6 13 11 14 11-2 121-2 121 7 23 7 22h23c12 0 27-5 34-12l12-12 1-95v-96l12-35 12-35 44-14 44-14 16 10 16 10 5 144 5 144 26 3 26 3 13-17 14-16 1-107 2-106 11-22 12-22 37-10 37-10 24 6 24 6-4 156-3 156-23 37-23 37-43 20-42 21h-89l-39-21-38-20-20 18-19 17-67 4-67 3-33-17zm-523-30c-2-11-2-85 1-165l5-146 29-37 29-38 41-19 41-19h40c22 0 57 5 77 10l36 10 31 35 30 34 10 38 11 38v217l-29 29-29 29h-82v-255l-13-25-13-25-20-3-21-3-14 17-14 17-5 113-5 113-21 22-22 21-44 5-45 5-4-18z"/></g><g fill="#ffe080" transform="matrix(.1 0 0 -.1 0 300)"><path d="m538 2184-47-14-63-43-62-43-43-62-42-62-16-52-15-52V830h2146l55 16c70 20 136 63 194 125l46 50 27 57 27 57 3 533 3 532-1083-1H585l-47-15zm2147-529v-480l-29-60-30-60-50-51-51-50-60-30-60-29H315v950l32 67 31 67 45 45c47 46 104 80 172 102l40 13 1025-2 1025-2v-480zM603 2061c-28-9-70-30-92-44l-41-27-35-48-35-47-15-49-15-50V950h1989l55 21 55 20 50 45 50 45 28 57 28 57 3 443 3 442h-988l-988-1-52-18zm514-111h35l29-29 29-29v-67l-30-64c-17-35-39-76-50-91-11-16-20-32-20-38v-9l43-6 42-6 28-31 27-30v-218l15-12 14-12 11 7 10 6v274l9 14 9 14 58-5 57-5 29-32 28-31 1-28 1-27 15 35c8 19 29 50 46 67l31 33 35 11c19 7 58 12 86 12h51l37-18 37-17 13 10c6 5 31 15 55 22l43 11 55-16 54-16 34-34 34-34 9-33 8-33 5 90 5 90 30 5 29 5-26 17-26 17-12 37-12 37 11 39 12 39 32 20 32 20 45-4 44-5 28-31 28-31v-88l-25-31c-14-16-35-33-47-37l-20-6 28-18c15-10 32-27 38-37l11-18 5-170 5-170 50-5 50-5 3-47 3-47-16-31-16-32-34-14c-44-18-71-18-128 2l-46 16-30 34-30 34-8 37-7 38-6-35-5-35-35-3-35-4-38 12-37 11-18 26-17 27-5 116-5 115h-30l-5-150-5-150-35-3-35-4-38 12-37 11-18 26-17 27-5 116-5 115h-30l-5-150-5-150-45-3-45-3-35 19-35 19-15 41-15 41-19-45-19-45-38-26-38-25-66-5-65-6-45 17-45 18-34 40-35 40-10 50-11 49v102l-1 102-29-35-29-35-1-167v-168H865l-34 18-34 19-19 34-18 34v224l-44 68c-76 118-176 339-176 389v14h175l32-20 32-19 51-106 51-106 10 6c13 8 83 149 99 200 7 22 18 43 24 48l11 8 29-6c16-3 44-5 63-5zm-547-35c0-8 16-56 37-106l36-92 69-113 68-114 1-102v-103l12-34 12-34 25-18 25-18 35-1c19-1 47-2 63-1l27 1v317l31 39c49 61 141 214 161 268l19 49-11 27-11 27-25 12-25 11h-99l-6-27c-9-35-110-239-123-247l-10-6-63 125-63 125-32 15-31 15H570v-15zm1643-40-31-13-11-21c-6-11-11-34-11-51v-32l29-29 29-29h22c29 0 77 26 90 49 5 11 10 31 10 45v26l-27 29c-16 16-37 32-48 35l-20 5-32-14zm-36-221-7-7v-422l19-42 19-42 41-20 40-21h101l19 19 18 18 7 37 7 38-12 14-11 14h-64l-12 12-12 12v305l-10 25c-12 32-44 52-95 61l-41 6-7-7zm-568-47-44-24-22-39-23-39v-256l25-24 24-25h81v249l10 25 10 26h60l10-26 10-25v-200l25-24 24-25h81l1 33c1 17 2 81 3 140l1 109 18 13 19 14 21-8 22-8 6-24c4-13 7-70 8-126l1-102 26-20 27-21h75l6 23c8 31 6 203-3 260l-8 48-20 27c-11 15-37 37-59 49l-39 23h-90l-33-20-34-21-42 21-42 20h-91l-44-23zm-512-14c-4-3-7-69-7-147v-140l21-44 21-43 37-25 37-24 44-6 45-6 44 12 45 12 32 32 32 32 12 59 12 59-4 93-4 93-20 21-20 20-45 2-44 2-5-140-5-140-8-12-8-13h-48l-15 16-16 15-1 97c-1 53-4 108-8 122l-7 25-34 17c-36 18-72 23-83 11z"/></g><g fill="#ffce2d" transform="matrix(.1 0 0 -.1 0 300)"><path d="M566 2189c-21-5-65-23-97-40l-59-32-46-49-45-49-32-67-32-67-3-527-3-528h2127l59 15 60 16 54 32 53 32 41 45 40 45 31 65 31 65 3 528 3 527-1073-1-1073-1-39-9zm2128-65c3-9 6-203 6-433v-417l-11-59-11-59-25-50-25-49-49-52-49-52-55-27c-30-14-78-31-106-36l-52-10H331l-15 16-16 15v846l10 53c28 147 127 264 263 311l52 18 1031 1h1032l6-16zm-2053-55c-24-4-62-18-86-29l-42-21-42-42-42-42-27-55-27-55-3-438-3-437 1003 2 1003 3 67 33 67 33 36 43c19 23 45 65 57 92l23 49 3 438 3 437-973-1-973-1-44-9zm107-135 27-20 51-99c29-55 56-101 61-102l9-3 46 97c25 54 50 110 56 126l12 27h111l34-14 33-14 11-20c6-12 11-38 11-59v-38l-24-52c-14-29-36-69-50-90-33-48-33-53 3-53 16 0 41-4 55-10l25-9 17-27 18-26-2-87c-1-47 1-98 4-113l6-28h38v300h132l29-29 29-29v-29l1-28 21 43 21 43 31 24c36 27 95 45 146 45l35-1 40-18 40-18 40 18c49 23 89 24 146 4l44-16 27-26c14-14 32-39 40-57l13-31 5 80 5 80 26 3 26 3-35 35-34 34 4 52 5 52 32 28 31 28h81l28-15 28-14 17-35c20-42 20-57 2-101l-15-35-31-18-31-19 25-17c14-9 31-26 38-38l13-23 5-165 5-165 48-3 47-3v-121l-34-34-34-34h-42c-24 0-61 5-83 12l-41 12-31 32-31 31-11 34-11 34-1-29-1-28-66 4-67 4-28 32-29 32v215l-9 14-9 14-11-7-11-7v-301l-65 4-66 4-27 27-27 27-3 115-4 114-13 11-14 12-6-24c-3-12-6-81-8-153l-2-130h-124l-25 24-25 24-7 30-6 30-15-33c-19-46-40-68-88-92l-39-21h-62l-62-1-48 25-49 25-30 49-30 48-5 136-5 136-22-36-23-36v-151c0-83-3-157-6-166l-6-16H859l-30 15-30 16-19 32-20 32v228l-49 76c-87 136-171 327-171 388v25l90-4 90-4 28-20zm-178-19c0-8 16-56 37-106l36-92 69-113 68-114 1-102v-103l12-34 12-34 25-18 25-18 35-1c19-1 47-2 63-1l27 1v317l31 39c49 61 141 214 161 268l19 49-11 27-11 27-25 12-25 11h-99l-6-27c-9-35-110-239-123-247l-10-6-63 125-63 125-32 15-31 15H570v-15zm1643-40-31-13-11-21c-6-11-11-34-11-51v-32l29-29 29-29h22c29 0 77 26 90 49 5 11 10 31 10 45v26l-27 29c-16 16-37 32-48 35l-20 5-32-14zm-36-221-7-7v-422l19-42 19-42 41-20 40-21h101l19 19 18 18 7 37 7 38-12 14-11 14h-64l-12 12-12 12v305l-10 25c-12 32-44 52-95 61l-41 6-7-7zm-568-47-44-24-22-39-23-39v-256l25-24 24-25h81v249l10 25 10 26h60l10-26 10-25v-200l25-24 24-25h81l1 33c1 17 2 81 3 140l1 109 18 13 19 14 21-8 22-8 6-24c4-13 7-70 8-126l1-102 26-20 27-21h75l6 23c8 31 6 203-3 260l-8 48-20 27c-11 15-37 37-59 49l-39 23h-90l-33-20-34-21-42 21-42 20h-91l-44-23zm-512-14c-4-3-7-69-7-147v-140l21-44 21-43 37-25 37-24 44-6 45-6 44 12 45 12 32 32 32 32 12 59 12 59-4 93-4 93-20 21-20 20-45 2-44 2-5-140-5-140-8-12-8-13h-48l-15 16-16 15-1 97c-1 53-4 108-8 122l-7 25-34 17c-36 18-72 23-83 11z"/></g><g fill="#f49798" transform="matrix(.1 0 0 -.1 0 300)"><path d="M570 1915c0-8 16-56 37-106l36-92 69-113 68-114 1-102v-103l12-34 12-34 25-18 25-18 35-1c19-1 47-2 63-1l27 1v317l31 39c49 61 141 214 161 268l19 49-11 27-11 27-25 12-25 11h-99l-6-27c-9-35-110-239-123-247l-10-6-63 125-63 125-32 15-31 15H570v-15zm1643-40-31-13-11-21c-6-11-11-34-11-51v-32l29-29 29-29h22c29 0 77 26 90 49 5 11 10 31 10 45v26l-27 29c-16 16-37 32-48 35l-20 5-32-14zm-36-221-7-7v-422l19-42 19-42 41-20 40-21h101l19 19 18 18 7 37 7 38-12 14-11 14h-64l-12 12-12 12v305l-10 25c-12 32-44 52-95 61l-41 6-7-7zm-568-47-44-24-22-39-23-39v-256l25-24 24-25h81v249l10 25 10 26h60l10-26 10-25v-200l25-24 24-25h81l1 33c1 17 2 81 3 140l1 109 18 13 19 14 21-8 22-8 6-24c4-13 7-70 8-126l1-102 26-20 27-21h75l6 23c8 31 6 203-3 260l-8 48-20 27c-11 15-37 37-59 49l-39 23h-90l-33-20-34-21-42 21-42 20h-91l-44-23zm-512-14c-4-3-7-69-7-147v-140l21-44 21-43 37-25 37-24 44-6 45-6 44 12 45 12 32 32 32 32 12 59 12 59-4 93-4 93-20 21-20 20-45 2-44 2-5-140-5-140-8-12-8-13h-48l-15 16-16 15-1 97c-1 53-4 108-8 122l-7 25-34 17c-36 18-72 23-83 11z"/></g><g fill="#ec3337" transform="matrix(.1 0 0 -.1 0 300)"><path d="M577 1924c-17-18 85-241 172-375l41-63v-227l14-28 15-27 26-12 26-12h99v306l43 59c106 146 167 262 167 313v29l-20 18-20 18-56 5-55 5-6-24c-4-13-33-77-65-142l-58-119-12 4c-7 3-42 60-78 129l-65 124-35 12c-37 13-123 17-133 7zm1627-56c-22-10-44-47-44-74 0-8 7-28 15-43l14-29 28-9c39-12 67-6 94 23l23 25v72l-28 23-27 24-27-1c-15 0-37-5-48-11zm-34-415v-198l10-37c6-21 22-50 35-66l24-28 39-12c22-7 54-12 71-12h32l24 25 25 24v81h-66l-16 13-16 12-5 165c-2 91-8 173-12 183s-20 24-36 32l-28 15h-81v-197zm-533 163c-50-19-76-42-98-91l-19-40v-214l11-24 11-25 25-11c13-6 37-11 53-11h30v277l18 16c10 10 26 17 35 17h16l15-22 16-22v-96c0-52 3-105 6-118l7-23 28-14c15-8 42-15 59-15h30v279l16 15c20 21 47 20 67-1l15-18 4-117 3-117 16-17 17-16 46-5 46-6v299l-22 44-23 44-37 19c-21 10-55 21-75 24l-38 4-49-25-49-25-26 20-26 19-45 5-45 5-38-14zm-547-153v-128l10-37 11-37 26-32 27-32 33-13 32-14h113l39 22 39 22 20 41 20 41v251l-23 21-23 22h-84v-280l-24-15-25-16-21 11-21 11-9 25-10 25v198l-26 20-27 21h-77v-127z"/></g></g></svg>
